<svg width="70" height="70" viewBox="0 0 70 70" fill="none" xmlns="http://www.w3.org/2000/svg">
<path d="M10.2539 70H33.0859V45.1172H24.8828V36.9141H33.0859V26.6602C33.0859 21.0061 37.6858 16.4062 43.3398 16.4062H53.5938V24.6094H45.3906C43.1289 24.6094 41.2891 26.4492 41.2891 28.7109V36.9141H53.2236L51.8565 45.1172H41.2891V70H59.7461C65.4002 70 70 65.4002 70 59.7461V10.2539C70 4.59984 65.4002 0 59.7461 0H10.2539C4.59984 0 0 4.59984 0 10.2539V59.7461C0 65.4002 4.59984 70 10.2539 70ZM4.10156 10.2539C4.10156 6.86157 6.86157 4.10156 10.2539 4.10156H59.7461C63.1384 4.10156 65.8984 6.86157 65.8984 10.2539V59.7461C65.8984 63.1384 63.1384 65.8984 59.7461 65.8984H45.3906V49.2188H55.331L58.0654 32.8125H45.3906V28.7109H57.6953V12.3047H43.3398C35.424 12.3047 28.9844 18.7444 28.9844 26.6602V32.8125H20.7812V49.2188H28.9844V65.8984H10.2539C6.86157 65.8984 4.10156 63.1384 4.10156 59.7461V10.2539Z" fill="#FF0000"/>
</svg>
