<svg width="70" height="54" viewBox="0 0 70 54" fill="none" xmlns="http://www.w3.org/2000/svg">
<path d="M63.8477 0.339844H6.15234C2.76418 0.339844 0 3.10102 0 6.49219V47.5078C0 50.8875 2.75188 53.6602 6.15234 53.6602H63.8477C67.2273 53.6602 70 50.9083 70 47.5078V6.49219C70 3.1125 67.2481 0.339844 63.8477 0.339844ZM62.9981 4.44141L35.1304 32.3092L7.02174 4.44141H62.9981ZM4.10156 46.6585V7.32193L23.8546 26.9055L4.10156 46.6585ZM7.00178 49.5586L26.7672 29.7932L33.693 36.6595C34.4947 37.4543 35.7885 37.4517 36.5869 36.6532L43.3398 29.9002L62.9982 49.5586H7.00178ZM65.8984 46.6584L46.2401 27L65.8984 7.34148V46.6584Z" fill="#FF0000"/>
</svg>
