<svg width="70" height="70" viewBox="0 0 70 70" fill="none" xmlns="http://www.w3.org/2000/svg">
<path d="M50.3089 70C48.0493 70 45.8088 69.6005 43.618 68.8046C33.9663 65.2984 25.0075 59.5879 17.7097 52.2903C10.4119 44.9927 4.70139 36.0338 1.19536 26.3821C0.0687073 23.2803 -0.26378 20.0785 0.207472 16.8652C0.64892 13.8553 1.81481 10.9334 3.57924 8.4151C5.35146 5.88577 7.71414 3.78203 10.4118 2.33137C13.2885 0.78446 16.4284 0 19.7445 0C20.7759 0 21.6673 0.720615 21.8834 1.72901L25.3168 17.7517C25.4723 18.4772 25.2493 19.2321 24.7247 19.7568L18.8579 25.6235C24.3924 36.627 33.3728 45.6074 44.3764 51.1418L50.243 45.275C50.7676 44.7505 51.5227 44.5277 52.2482 44.6829L68.2709 48.1163C69.2794 48.3325 69.9999 49.2238 69.9999 50.2552C69.9999 53.5713 69.2155 56.7113 67.6684 59.5881C66.2177 62.2857 64.114 64.6484 61.5846 66.4206C59.0665 68.185 56.1445 69.3509 53.1345 69.7923C52.1913 69.9308 51.2483 69.9999 50.3089 70V70ZM17.9968 4.47052C13.6226 4.95339 9.74024 7.24607 7.16209 10.9257C4.26294 15.0633 3.5869 20.1525 5.3073 24.8885C12.0478 43.444 26.556 57.9522 45.1116 64.6927C49.8475 66.4131 54.9368 65.7371 59.0744 62.8379C62.7541 60.2597 65.0468 56.3774 65.5297 52.0032L52.4952 49.2102L46.3683 55.3371C45.7163 55.9891 44.7257 56.1623 43.8914 55.7702C30.8777 49.6564 20.3436 39.1224 14.2298 26.1087C13.8378 25.2743 14.0109 24.2837 14.6629 23.6318L20.7898 17.5049L17.9968 4.47052Z" fill="#FF0000"/>
<path d="M67.8126 37.186C66.6046 37.186 65.6252 36.2066 65.6252 34.9986C65.6252 18.1126 51.8874 4.37482 35.0013 4.37482C33.7933 4.37482 32.8139 3.39541 32.8139 2.18741C32.8139 0.979413 33.7933 0 35.0013 0C44.3499 0 53.1388 3.6404 59.7492 10.2508C66.3596 16.8611 70 25.65 70 34.9986C70 36.2066 69.0207 37.186 67.8126 37.186Z" fill="#FF0000"/>
<path d="M59.0629 37.1858C57.8549 37.1858 56.8755 36.2064 56.8755 34.9984C56.8755 22.9371 47.0627 13.1243 35.0013 13.1243C33.7933 13.1243 32.8139 12.1449 32.8139 10.9369C32.8139 9.72892 33.7933 8.74951 35.0013 8.74951C49.4751 8.74951 61.2503 20.5248 61.2503 34.9984C61.2503 36.2064 60.2711 37.1858 59.0629 37.1858Z" fill="#FF0000"/>
<path d="M50.3132 37.186C49.1052 37.186 48.1258 36.2065 48.1258 34.9986C48.1258 27.7616 42.2383 21.8741 35.0013 21.8741C33.7933 21.8741 32.8139 20.8947 32.8139 19.6867C32.8139 18.4787 33.7933 17.4993 35.0013 17.4993C44.6506 17.4993 52.5007 25.3493 52.5007 34.9986C52.5007 36.2065 51.5214 37.186 50.3132 37.186Z" fill="#FF0000"/>
</svg>
