<svg width="297" height="257" viewBox="0 0 297 257" fill="none" xmlns="http://www.w3.org/2000/svg">
<path d="M295.063 84.5434H2.36687V70.6563C2.36687 69.0231 3.69172 67.6987 5.32545 67.6987H292.105C293.738 67.6987 295.063 69.0231 295.063 70.6563V84.5434Z" fill="#E1E7F3"/>
<path d="M21.5213 78.4234C22.7935 78.4234 23.8249 77.3924 23.8249 76.1207C23.8249 74.8489 22.7935 73.8179 21.5213 73.8179C20.2491 73.8179 19.2178 74.8489 19.2178 76.1207C19.2178 77.3924 20.2491 78.4234 21.5213 78.4234Z" fill="white"/>
<path d="M30.2657 78.4234C31.5379 78.4234 32.5692 77.3924 32.5692 76.1207C32.5692 74.8489 31.5379 73.8179 30.2657 73.8179C28.9935 73.8179 27.9621 74.8489 27.9621 76.1207C27.9621 77.3924 28.9935 78.4234 30.2657 78.4234Z" fill="white"/>
<path d="M39.0095 78.4234C40.2817 78.4234 41.313 77.3924 41.313 76.1207C41.313 74.8489 40.2817 73.8179 39.0095 73.8179C37.7373 73.8179 36.7059 74.8489 36.7059 76.1207C36.7059 77.3924 37.7373 78.4234 39.0095 78.4234Z" fill="white"/>
<path d="M292.105 67.698C293.738 67.698 295.063 69.0224 295.063 70.6556V252.22C295.063 253.853 293.738 255.177 292.105 255.177H5.32544C3.69172 255.177 2.36686 253.853 2.36686 252.22V70.6556C2.36686 69.0224 3.69172 67.698 5.32544 67.698H292.105ZM292.105 66.2192H5.32544C2.87811 66.2192 0.887573 68.2091 0.887573 70.6556V252.22C0.887573 254.666 2.87811 256.656 5.32544 256.656H292.105C294.552 256.656 296.543 254.666 296.543 252.22V70.6556C296.543 68.2097 294.552 66.2192 292.105 66.2192Z" fill="#696872"/>
<path d="M283.509 246.623H13.9213C12.2876 246.623 10.9627 245.298 10.9627 243.665V97.7525C10.9627 96.1193 12.2876 94.7949 13.9213 94.7949H283.509C285.143 94.7949 286.468 96.1193 286.468 97.7525V243.665C286.468 245.298 285.143 246.623 283.509 246.623Z" fill="white"/>
<path d="M95.926 164.389H30.7716C29.1379 164.389 27.813 163.065 27.813 161.432V114.597C27.813 112.964 29.1379 111.64 30.7716 111.64H95.926C97.5598 111.64 98.8846 112.964 98.8846 114.597V161.432C98.8846 163.065 97.5598 164.389 95.926 164.389Z" fill="#E1E7F3"/>
<path d="M266.659 164.389H201.505C199.871 164.389 198.546 163.065 198.546 161.432V114.597C198.546 112.964 199.871 111.64 201.505 111.64H266.659C268.293 111.64 269.618 112.964 269.618 114.597V161.432C269.618 163.065 268.293 164.389 266.659 164.389Z" stroke="#696872" stroke-width="2.5" stroke-miterlimit="10"/>
<path d="M97.5633 193.437H29.4036C28.5254 193.437 27.813 192.726 27.813 191.847C27.813 190.969 28.5249 190.257 29.4036 190.257H97.5639C98.442 190.257 99.1544 190.969 99.1544 191.847C99.1544 192.726 98.442 193.437 97.5633 193.437Z" fill="#E1E7F3"/>
<path d="M97.5633 184.352H29.4036C28.5254 184.352 27.813 183.641 27.813 182.762C27.813 181.885 28.5249 181.172 29.4036 181.172H97.5639C98.442 181.172 99.1544 181.884 99.1544 182.762C99.1538 183.641 98.442 184.352 97.5633 184.352Z" fill="#E1E7F3"/>
<path d="M64.8243 202.523H28.6568C28.1905 202.523 27.813 201.811 27.813 200.933C27.813 200.054 28.1911 199.343 28.6568 199.343H64.8243C65.2905 199.343 65.668 200.054 65.668 200.933C65.668 201.811 65.2905 202.523 64.8243 202.523Z" fill="#ADA3F1"/>
<path d="M86.5621 211.608H29.1527C28.413 211.608 27.813 210.896 27.813 210.018C27.813 209.14 28.413 208.428 29.1527 208.428H86.5621C87.3018 208.428 87.9018 209.139 87.9018 210.018C87.9018 210.896 87.3018 211.608 86.5621 211.608Z" fill="#ADA3F1"/>
<path d="M97.5633 220.693H29.4036C28.5254 220.693 27.813 219.981 27.813 219.103C27.813 218.225 28.5249 217.513 29.4036 217.513H97.5639C98.442 217.513 99.1544 218.224 99.1544 219.103C99.1538 219.981 98.442 220.693 97.5633 220.693Z" fill="#E1E7F3"/>
<path d="M87.0095 229.777H29.1627C28.4172 229.777 27.813 229.066 27.813 228.187C27.813 227.309 28.4172 226.597 29.1627 226.597H87.0095C87.755 226.597 88.3592 227.309 88.3592 228.187C88.3592 229.066 87.755 229.777 87.0095 229.777Z" fill="#E1E7F3"/>
<path d="M176.888 202.523H120.543C119.664 202.523 118.952 201.811 118.952 200.933C118.952 200.054 119.664 199.343 120.543 199.343H176.888C177.766 199.343 178.479 200.054 178.479 200.933C178.479 201.811 177.766 202.523 176.888 202.523Z" fill="#E1E7F3"/>
<path d="M176.888 211.608H120.543C119.664 211.608 118.952 210.896 118.952 210.018C118.952 209.14 119.664 208.428 120.543 208.428H176.888C177.766 208.428 178.479 209.139 178.479 210.018C178.479 210.896 177.766 211.608 176.888 211.608Z" fill="#ADA3F1"/>
<path d="M169.501 220.693H120.339C119.573 220.693 118.951 219.981 118.951 219.103C118.951 218.225 119.573 217.513 120.339 217.513H169.501C170.267 217.513 170.888 218.224 170.888 219.103C170.888 219.981 170.267 220.693 169.501 220.693Z" fill="#E1E7F3"/>
<path d="M176.888 229.777H120.543C119.664 229.777 118.952 229.066 118.952 228.187C118.952 227.309 119.664 226.597 120.543 226.597H176.888C177.766 226.597 178.479 227.309 178.479 228.187C178.479 229.066 177.766 229.777 176.888 229.777Z" fill="#E1E7F3"/>
<path d="M266.659 229.778H201.698C200.064 229.778 198.74 228.453 198.74 226.82V179.985C198.74 178.352 200.064 177.028 201.698 177.028H266.659C268.293 177.028 269.618 178.352 269.618 179.985V226.82C269.618 228.454 268.293 229.778 266.659 229.778Z" fill="#ADA3F1"/>
<path d="M175.289 144.958H122.141C120.507 144.958 119.182 143.634 119.182 142V114.597C119.182 112.964 120.507 111.64 122.141 111.64H175.289C176.922 111.64 178.247 112.964 178.247 114.597V142C178.247 143.634 176.923 144.958 175.289 144.958Z" fill="#ADA3F1"/>
<path d="M175.289 189.129H122.141C120.507 189.129 119.182 187.805 119.182 186.171V158.768C119.182 157.135 120.507 155.811 122.141 155.811H175.289C176.922 155.811 178.247 157.135 178.247 158.768V186.171C178.247 187.805 176.923 189.129 175.289 189.129Z" fill="#E1E7F3"/>
<path d="M169.811 44.6908L149.518 124.911C149.418 125.307 149.016 125.547 148.62 125.447L148.012 125.293C147.617 125.193 147.376 124.791 147.477 124.395L167.769 44.1744C167.869 43.7787 168.272 43.5385 168.667 43.6391L169.275 43.7929C169.671 43.8929 169.911 44.2951 169.811 44.6908Z" fill="#696872"/>
<path d="M173.959 44.9492C186.001 44.9492 195.762 35.191 195.762 23.1536C195.762 11.1162 186.001 1.35791 173.959 1.35791C161.918 1.35791 152.156 11.1162 152.156 23.1536C152.156 35.191 161.918 44.9492 173.959 44.9492Z" fill="#E1E7F3"/>
<path d="M173.96 2.09745C185.592 2.09745 195.023 11.5245 195.023 23.1537C195.023 34.7829 185.593 44.21 173.96 44.21C162.327 44.21 152.896 34.7829 152.896 23.1537C152.896 11.5245 162.327 2.09745 173.96 2.09745ZM173.96 0.618652C161.53 0.618652 151.417 10.7277 151.417 23.1537C151.417 35.5797 161.53 45.6888 173.96 45.6888C186.39 45.6888 196.502 35.5797 196.502 23.1537C196.502 10.7277 186.389 0.618652 173.96 0.618652Z" fill="#696872"/>
<path d="M183.956 18.7552H163.963C163.21 18.7552 162.599 18.2838 162.599 17.7023C162.599 17.1209 163.209 16.6494 163.963 16.6494H183.956C184.709 16.6494 185.32 17.1209 185.32 17.7023C185.32 18.2844 184.709 18.7552 183.956 18.7552Z" fill="#696872"/>
<path d="M183.956 24.2064H163.963C163.21 24.2064 162.599 23.735 162.599 23.1535C162.599 22.572 163.209 22.1006 163.963 22.1006H183.956C184.709 22.1006 185.32 22.572 185.32 23.1535C185.32 23.735 184.709 24.2064 183.956 24.2064Z" fill="#696872"/>
<path d="M183.956 29.6576H163.963C163.21 29.6576 162.599 29.1861 162.599 28.6047C162.599 28.0232 163.209 27.5518 163.963 27.5518H183.956C184.709 27.5518 185.32 28.0232 185.32 28.6047C185.32 29.1861 184.709 29.6576 183.956 29.6576Z" fill="#696872"/>
</svg>
