<svg width="135" height="107" viewBox="0 0 135 107" fill="none" xmlns="http://www.w3.org/2000/svg">
<path d="M130.509 16.9267C127.814 14.1036 124.092 12.4353 119.857 12.4353H98.5551V12.1786C98.5551 8.97047 97.2719 5.89062 95.0903 3.83739C92.9087 1.65583 89.9572 0.372559 86.7491 0.372559H48.251C44.9144 0.372559 41.9629 1.65583 39.7814 3.83739C37.5998 6.01895 36.3165 8.97047 36.3165 12.1786V12.4353H15.1426C10.9078 12.4353 7.18631 14.1036 4.49145 16.9267C1.79658 19.6216 0 23.4714 0 27.5779V91.4847C0 95.7195 1.66825 99.441 4.49145 102.136C7.18631 104.831 11.0361 106.627 15.1426 106.627H119.857C124.092 106.627 127.814 104.959 130.509 102.136C133.203 99.441 135 95.5912 135 91.4847V27.5779C135 23.3431 133.332 19.6216 130.509 16.9267ZM128.327 91.4847H128.199C128.199 93.7946 127.3 95.8479 125.76 97.3878C124.221 98.9277 122.167 99.826 119.857 99.826H15.1426C12.8327 99.826 10.7795 98.9277 9.23954 97.3878C7.69962 95.8479 6.80133 93.7946 6.80133 91.4847V27.5779C6.80133 25.268 7.69962 23.2148 9.23954 21.6748C10.7795 20.1349 12.8327 19.2366 15.1426 19.2366H39.9097C41.8346 19.2366 43.3745 17.6967 43.3745 15.7718V12.0503C43.3745 10.6387 43.8878 9.35545 44.7861 8.45716C45.6844 7.55887 46.9677 7.04556 48.3793 7.04556H86.7491C88.1606 7.04556 89.4439 7.55887 90.3422 8.45716C91.2405 9.35545 91.7538 10.6387 91.7538 12.0503V15.7718C91.7538 17.6967 93.2937 19.2366 95.2186 19.2366H119.986C122.296 19.2366 124.349 20.1349 125.889 21.6748C127.429 23.2148 128.327 25.268 128.327 27.5779V91.4847Z" fill="#FF0000"/>
<path d="M67.5 27.9629C58.7738 27.9629 50.8175 31.556 45.1711 37.2024C39.3964 42.9772 35.9316 50.8051 35.9316 59.5313C35.9316 68.2576 39.5247 76.2139 45.1711 81.8602C50.9458 87.635 58.7738 91.0998 67.5 91.0998C76.2263 91.0998 84.1825 87.5066 89.8289 81.8602C95.6036 76.0855 99.0685 68.2576 99.0685 59.5313C99.0685 50.8051 95.4753 42.8488 89.8289 37.2024C84.1825 31.556 76.2263 27.9629 67.5 27.9629ZM84.9525 77.1121C80.4611 81.4753 74.3014 84.2985 67.5 84.2985C60.6987 84.2985 54.539 81.4753 50.0476 77.1121C45.5561 72.6207 42.8612 66.461 42.8612 59.6597C42.8612 52.8583 45.6844 46.6986 50.0476 42.2072C54.539 37.7157 60.6987 35.0209 67.5 35.0209C74.3014 35.0209 80.4611 37.8441 84.9525 42.2072C89.4439 46.6986 92.1388 52.8583 92.1388 59.6597C92.2671 66.461 89.4439 72.6207 84.9525 77.1121Z" fill="#FF0000"/>
<path d="M113.185 40.4105C116.657 40.4105 119.473 37.5953 119.473 34.1225C119.473 30.6497 116.657 27.8345 113.185 27.8345C109.712 27.8345 106.896 30.6497 106.896 34.1225C106.896 37.5953 109.712 40.4105 113.185 40.4105Z" fill="#FF0000"/>
</svg>
