<svg width="100" height="100" viewBox="0 0 100 100" fill="none" xmlns="http://www.w3.org/2000/svg">
<g clip-path="url(#clip0_19_127)">
<path d="M68.2155 46.9526C67.4053 46.9526 66.7487 47.6095 66.7487 48.4194V50.114C66.7487 50.9241 67.4055 51.5808 68.2155 51.5808C69.0254 51.5808 69.6823 50.9239 69.6823 50.114V48.4194C69.6823 47.6093 69.0256 46.9526 68.2155 46.9526Z" fill="black"/>
<path d="M79.6565 46.9526C78.8465 46.9526 78.1897 47.6095 78.1897 48.4194V50.114C78.1897 50.9239 78.8463 51.5808 79.6565 51.5808C80.4666 51.5808 81.1233 50.9239 81.1233 50.114V48.4194C81.1233 47.6093 80.4665 46.9526 79.6565 46.9526Z" fill="black"/>
<path d="M77.9459 55.3973C77.2882 54.9243 76.3716 55.0737 75.8984 55.7313C75.6103 56.1317 74.8918 56.5356 73.9363 56.5356C72.9808 56.5356 72.2623 56.1317 71.9742 55.7313C71.5009 55.0737 70.5843 54.9243 69.9267 55.3973C69.2691 55.8706 69.1195 56.7872 69.5927 57.4448C70.505 58.7126 72.1289 59.4694 73.9363 59.4694C75.7439 59.4694 77.3675 58.7126 78.2798 57.4448C78.7531 56.7872 78.6035 55.8706 77.9459 55.3973Z" fill="black"/>
<path d="M21.2874 49.1736C20.4772 49.1736 19.8206 49.8304 19.8206 50.6404V52.281C19.8206 53.0912 20.4774 53.7478 21.2874 53.7478C22.0973 53.7478 22.7541 53.0912 22.7541 52.281V50.6404C22.7541 49.8302 22.0973 49.1736 21.2874 49.1736Z" fill="black"/>
<path d="M30.7341 57.3588C30.0765 56.8857 29.1599 57.0351 28.6868 57.6927C28.4147 58.0707 27.7337 58.4521 26.8249 58.4521C25.9161 58.4521 25.2351 58.0707 24.963 57.6927C24.4897 57.0351 23.5729 56.8857 22.9155 57.3588C22.2579 57.832 22.1085 58.7486 22.5815 59.4062C23.4735 60.6459 25.0597 61.3857 26.8247 61.3857C28.5897 61.3857 30.1761 60.6457 31.0681 59.4062C31.5411 58.7488 31.3917 57.832 30.7341 57.3588Z" fill="black"/>
<path d="M57.7094 78.9805C56.8993 78.9805 56.2427 79.6373 56.2427 80.4473V83.3084C56.2427 84.1186 56.8993 84.7752 57.7094 84.7752C58.5196 84.7752 59.1762 84.1184 59.1762 83.3084V80.4473C59.1764 79.6371 58.5196 78.9805 57.7094 78.9805Z" fill="black"/>
<path d="M56.3835 2.55103C53.9894 2.55103 51.7355 3.42505 49.9931 4.99204C48.2507 3.42505 45.9968 2.55103 43.6027 2.55103C38.322 2.55103 34.0259 6.84712 34.0259 12.1278C34.0257 16.7768 36.7376 21.2481 41.8681 25.0583C45.6075 27.8354 49.3029 29.2965 49.4583 29.3573C49.6302 29.4245 49.8115 29.4581 49.9929 29.4581C50.1744 29.4581 50.3556 29.4245 50.5275 29.3573C50.6829 29.2965 54.3781 27.8354 58.1177 25.0583C63.2484 21.2479 65.9603 16.7768 65.9603 12.1278C65.9603 6.84712 61.6642 2.55103 56.3835 2.55103ZM49.9927 26.3977C47.4753 25.2829 36.9593 20.1442 36.9593 12.128C36.9593 8.46489 39.9394 5.48481 43.6025 5.48481C45.6597 5.48481 47.5679 6.41548 48.8376 8.03813C49.1156 8.39341 49.5417 8.60102 49.9927 8.60102C50.4437 8.60102 50.8699 8.39341 51.1478 8.03813C52.4177 6.41548 54.3259 5.48481 56.383 5.48481C60.0461 5.48481 63.0261 8.46489 63.0261 12.128C63.0261 20.1454 52.5078 25.2842 49.9927 26.3977Z" fill="black"/>
<path d="M91.4896 67.6307L82.2171 64.9004C82.1732 64.8872 82.1283 64.8756 82.0826 64.8663L80.6277 64.5739C80.2818 64.5043 80.0306 64.1977 80.0306 63.8448V63.145C83.8386 61.4084 86.7843 58.1002 88.0285 54.0516H89.1498C91.1281 54.0516 92.7377 52.442 92.7377 50.4637V48.1133C92.7377 47.0551 92.2677 46.0668 91.4882 45.3954V42.8082C91.4882 34.376 84.6281 27.5159 76.1959 27.5159H71.6789C63.2466 27.5159 56.3865 34.376 56.3865 42.8082V45.3954C55.607 46.0668 55.1371 47.0551 55.1371 48.1133V50.4637C55.1371 52.442 56.7466 54.0516 58.725 54.0516H59.8463C61.0619 58.0071 63.8996 61.2586 67.5806 63.0256V63.8977C67.5806 64.2506 67.3295 64.5575 66.9836 64.627L65.8148 64.862C65.8138 64.8622 65.8129 64.8624 65.8117 64.8625L65.7921 64.8665C65.7463 64.8756 65.7013 64.8873 65.6572 64.9006L56.3851 67.6307C53.1556 68.5815 50.5556 70.8639 49.1136 73.7639C48.489 72.7719 47.7095 71.8803 46.8039 71.129L50.3779 69.9971C52.425 69.3489 53.7679 67.3967 53.6441 65.2502C53.4238 61.4336 52.4953 53.7028 48.7521 44.8079C44.1017 33.7573 37.4361 29.5247 32.4781 27.9395C31.2119 26.1846 29.1513 25.0393 26.8269 25.0393C24.5025 25.0393 22.4418 26.1846 21.1755 27.9395C16.2175 29.5249 9.55191 33.7575 4.90152 44.8079C1.15797 53.7028 0.229455 61.4336 0.00914221 65.25C-0.114881 67.3965 1.22828 69.3487 3.27535 69.9969L6.84918 71.1288C4.38024 73.177 2.84586 76.2663 2.84586 79.5944V95.9821C2.84586 96.7922 3.5027 97.4489 4.31266 97.4489L98.5343 97.4393C99.3445 97.4393 100.001 96.7827 100.001 95.9725V79.0096C100.001 73.7854 96.5009 69.1061 91.4896 67.6307ZM46.0478 45.9458C49.6207 54.436 50.5056 61.7909 50.715 65.4192C50.7615 66.2251 50.2586 66.9575 49.492 67.2002L43.2755 69.169C43.1597 69.1305 43.0435 69.0942 42.9273 69.06L34.4318 66.5583C34.3906 66.5459 34.3488 66.5358 34.3064 66.5272L32.9748 66.2594C32.7158 66.2075 32.5279 65.978 32.5279 65.7139V65.0409C32.5843 65.0163 32.6386 64.9879 32.6947 64.9625C32.8482 64.8932 33.0007 64.8229 33.1513 64.7483C33.2257 64.7114 33.2992 64.6729 33.3728 64.6346C33.5244 64.5563 33.6744 64.4762 33.8228 64.3928C33.8869 64.3567 33.9504 64.32 34.0138 64.2829C34.1754 64.1887 34.3349 64.0913 34.4923 63.9911C34.5382 63.9618 34.5841 63.9329 34.6295 63.903C34.813 63.7833 34.9935 63.6592 35.1711 63.5313C35.1884 63.5188 35.2062 63.5067 35.2236 63.494C37.6986 61.6952 39.5793 59.1262 40.5048 56.1395H41.5863C43.5273 56.1395 45.1066 54.5602 45.1066 52.6192V50.3436C45.1066 50.2356 45.1 50.1292 45.0904 50.0237C45.088 49.9981 45.0855 49.9727 45.0828 49.9473C45.0711 49.8434 45.0562 49.7403 45.0357 49.6391C45.0343 49.6325 45.0324 49.626 45.031 49.6196C45.0109 49.5237 44.9859 49.4295 44.9582 49.3366C44.9511 49.3131 44.9441 49.2897 44.9367 49.2665C44.9056 49.1698 44.8714 49.0747 44.8324 48.9819C44.8281 48.9717 44.8232 48.9622 44.8189 48.952C44.7822 48.8672 44.742 48.7846 44.699 48.7034C44.688 48.6827 44.6773 48.662 44.6658 48.6415C44.6173 48.5542 44.566 48.4688 44.5107 48.3864C44.5027 48.3745 44.4941 48.3633 44.4859 48.3516C44.4353 48.2784 44.382 48.2073 44.3261 48.1381C44.3121 48.1208 44.2984 48.1032 44.2839 48.086C44.2203 48.01 44.1541 47.9366 44.0843 47.8665C44.0726 47.8545 44.0601 47.8434 44.0482 47.8317C43.9857 47.7706 43.9211 47.7118 43.8543 47.6553C43.838 47.6416 43.8222 47.6278 43.8058 47.6143C43.7291 47.5518 43.6498 47.4922 43.5677 47.4362C43.5523 47.4256 43.5363 47.4159 43.5209 47.4057C43.4834 47.3809 43.4462 47.3555 43.4078 47.3321C43.4074 47.0885 43.3998 46.8461 43.3886 46.6042C43.3847 46.5163 43.3791 46.4291 43.3738 46.3416C43.3644 46.1911 43.3529 46.0411 43.3394 45.8913C43.3293 45.776 43.3197 45.6606 43.3072 45.5461C43.3027 45.5065 43.2968 45.467 43.2921 45.4274C42.8046 41.2387 40.7511 37.5237 37.7328 34.8813C37.7326 34.8811 37.7324 34.8811 37.7324 34.8809C37.4511 34.6346 37.1625 34.3967 36.865 34.1698C36.8507 34.1588 36.8369 34.1473 36.8224 34.1364C36.7312 34.0672 36.638 34.0004 36.5453 33.9333C36.4363 33.854 36.3267 33.7754 36.2158 33.6987C36.1402 33.6465 36.0646 33.5948 35.9882 33.544C35.8242 33.4346 35.6582 33.328 35.4898 33.2241C35.4599 33.2057 35.4308 33.1864 35.4009 33.1682C35.189 33.0395 34.9734 32.9159 34.755 32.7963C34.7214 32.778 34.6875 32.7606 34.6539 32.7424C34.4662 32.6415 34.2763 32.5442 34.0841 32.4502C34.0394 32.4284 33.9947 32.4065 33.9498 32.385C33.8953 32.359 33.8418 32.3313 33.7869 32.3057C33.7912 32.2055 33.7935 32.1053 33.7935 32.0053C33.7935 31.8762 33.7894 31.7481 33.7824 31.6206C33.782 31.6145 33.7822 31.6084 33.7818 31.6024C37.7816 33.5 42.5029 37.5219 46.0478 45.9458ZM32.3648 53.7479C33.175 53.7479 33.8316 53.0911 33.8316 52.2811V50.6405C33.8316 50.3084 33.7199 50.0032 33.5339 49.7573H38.2093V51.9092C38.2093 52.1122 38.2037 52.3153 38.1925 52.5188C38.1918 52.5321 38.1902 52.5452 38.1896 52.5584C38.1785 52.7506 38.1632 52.9428 38.1423 53.135C38.1418 53.1397 38.1412 53.1442 38.1406 53.1489C38.1187 53.3473 38.0918 53.5456 38.0595 53.7432C38.058 53.7532 38.0558 53.7629 38.0543 53.7729C38.0232 53.96 37.9875 54.1465 37.9472 54.3325C37.9295 54.4137 37.9105 54.4946 37.891 54.5754C37.8632 54.6905 37.8337 54.8049 37.8025 54.9188C37.781 54.9973 37.7589 55.0756 37.7357 55.1536C37.7123 55.2319 37.6888 55.3102 37.6638 55.3877C37.6367 55.4723 37.6076 55.5559 37.5785 55.6395C37.5351 55.7637 37.49 55.8872 37.4423 56.0094C37.4226 56.0604 37.4027 56.1112 37.3822 56.1618C37.2562 56.4725 37.1171 56.7774 36.9648 57.0747C36.9607 57.0825 36.9568 57.0905 36.9527 57.0983C36.1886 58.5799 35.1045 59.8819 33.7902 60.904C33.7763 60.9147 33.7627 60.9258 33.7488 60.9364C33.6685 60.9983 33.5871 61.0588 33.505 61.1186C33.4593 61.1518 33.413 61.1844 33.367 61.2168C33.2595 61.2928 33.1505 61.3668 33.0404 61.4391C32.9648 61.4885 32.8892 61.5377 32.8125 61.5854C32.7539 61.6219 32.6947 61.6577 32.6353 61.6932C32.5312 61.7551 32.4263 61.8159 32.3203 61.8747C32.2773 61.8985 32.2343 61.9221 32.1912 61.9456C32.0701 62.0106 31.9476 62.0733 31.824 62.1338C31.7804 62.1553 31.7365 62.1764 31.6925 62.1973C31.5507 62.2647 31.4078 62.3303 31.2629 62.3918C31.2462 62.3989 31.2295 62.4053 31.2127 62.4122C31.0806 62.4674 30.947 62.5198 30.8127 62.5702C30.763 62.5887 30.7132 62.6071 30.6632 62.6251C30.574 62.6571 30.4837 62.6866 30.3935 62.7165C30.3117 62.7434 30.23 62.7713 30.1478 62.7965C30.064 62.8221 29.9791 62.845 29.8945 62.8686C29.7513 62.9086 29.6074 62.9461 29.4628 62.9805C29.3662 63.0036 29.2699 63.0272 29.1724 63.0477C29.0937 63.0643 29.0146 63.078 28.9355 63.093C28.8404 63.111 28.7455 63.1288 28.6496 63.1442C28.5722 63.1567 28.4947 63.1676 28.4171 63.1786C28.3158 63.1928 28.2138 63.2059 28.1117 63.2174C28.039 63.2256 27.9664 63.2334 27.8935 63.2403C27.7783 63.251 27.6623 63.2594 27.5459 63.2668C27.4849 63.2708 27.4242 63.2754 27.363 63.2784C27.1851 63.2868 27.0064 63.292 26.8263 63.292C26.6414 63.292 26.4574 63.2868 26.2746 63.278C26.2187 63.2752 26.163 63.2704 26.1074 63.2668C25.9793 63.2588 25.8511 63.2499 25.7242 63.2375C25.6621 63.2315 25.6002 63.2239 25.5382 63.2168C25.4168 63.2032 25.2959 63.1881 25.1755 63.1706C25.1148 63.1618 25.0543 63.152 24.9937 63.1422C24.8711 63.1223 24.7488 63.1004 24.6275 63.0766C24.572 63.0657 24.5166 63.0547 24.4613 63.043C24.3324 63.0157 24.2045 62.9858 24.0773 62.9542C24.0308 62.9426 23.9843 62.9315 23.938 62.9194C23.7945 62.8817 23.6523 62.8409 23.5111 62.7979C23.4826 62.7891 23.4537 62.7813 23.4252 62.7723C22.73 62.5542 22.0636 62.2709 21.4328 61.9299C21.4127 61.919 21.3927 61.9081 21.3728 61.8971C21.2318 61.8198 21.0925 61.7397 20.9554 61.6569C20.9209 61.6358 20.8869 61.6139 20.8525 61.5926C20.7591 61.5348 20.667 61.4752 20.5754 61.4147C20.5039 61.3672 20.4326 61.3196 20.3623 61.2706C20.3367 61.253 20.3117 61.2344 20.2863 61.2166C18.4802 59.9373 17.0595 58.144 16.2398 56.0823C16.2345 56.0688 16.2291 56.0553 16.2238 56.0418C16.1513 55.8575 16.0843 55.6706 16.0216 55.4823C16.0111 55.4504 15.9996 55.419 15.9894 55.387C15.963 55.3049 15.9384 55.2223 15.9138 55.1397C15.8918 55.0651 15.8705 54.9899 15.8498 54.9145C15.8214 54.8116 15.7945 54.7083 15.7693 54.6043C15.747 54.5131 15.7257 54.4217 15.7058 54.3295C15.6664 54.1473 15.6314 53.9643 15.6007 53.7807C15.5986 53.7672 15.5957 53.754 15.5935 53.7405C15.5619 53.5463 15.5355 53.3516 15.514 53.1569C15.5132 53.1489 15.5119 53.1411 15.5109 53.1331C15.4904 52.9438 15.4754 52.7543 15.4644 52.5649C15.4634 52.5491 15.4617 52.5336 15.4609 52.5178C15.45 52.3147 15.4443 52.1116 15.4443 51.9088V49.5508C15.458 49.5452 15.4709 49.5379 15.4843 49.5323C15.5382 49.5092 15.5912 49.4846 15.6433 49.4583C15.6642 49.4477 15.6851 49.4375 15.7056 49.4266C15.7754 49.3893 15.8437 49.3499 15.9099 49.3067C15.9111 49.3059 15.9121 49.3051 15.9132 49.3043C15.9783 49.2618 16.0408 49.2159 16.1021 49.168C16.1205 49.1538 16.1382 49.1387 16.1562 49.1239C16.2017 49.0864 16.2461 49.0475 16.289 49.0073C16.3058 48.9915 16.3228 48.976 16.3394 48.9598C16.4527 48.8485 16.5568 48.727 16.6502 48.5961C16.6638 48.577 16.6765 48.5575 16.6898 48.5381C16.7234 48.4885 16.7554 48.4377 16.7859 48.3856C16.7978 48.3651 16.8101 48.345 16.8216 48.3241C16.8609 48.2528 16.8984 48.1801 16.9316 48.1047C16.9623 48.0352 16.9877 47.9633 17.0072 47.8897L18.0886 43.8301C18.1529 43.5889 18.3336 43.4991 18.4355 43.467C18.538 43.435 18.7382 43.4051 18.93 43.5668C24.1789 47.9999 28.374 49.3971 31.2476 49.6915C31.0304 49.9473 30.8986 50.278 30.8986 50.6399V52.2805C30.898 53.0913 31.5548 53.7479 32.3648 53.7479ZM41.0837 53.2063C41.092 53.1176 41.0957 53.029 41.1021 52.9401C41.1103 52.8247 41.1205 52.7098 41.1259 52.5936C41.1371 52.3653 41.1433 52.137 41.1433 51.9092V49.7573H41.2007H41.5861C41.9095 49.7573 42.1728 50.0206 42.1728 50.344V52.6196C42.1728 52.943 41.9095 53.2063 41.5861 53.2063H41.0837ZM22.8705 31.2264C22.8908 31.1231 22.9144 31.0211 22.9425 30.9209C22.948 30.901 22.9552 30.8815 22.9611 30.8616C22.9861 30.7776 23.0132 30.6946 23.0433 30.6129C23.0537 30.585 23.0646 30.5575 23.0755 30.5297C23.1066 30.4512 23.1398 30.3739 23.1755 30.2977C23.1849 30.2774 23.1941 30.2571 23.2039 30.237C23.8603 28.8977 25.2373 27.9727 26.8267 27.9727C28.416 27.9727 29.7925 28.8973 30.4492 30.2364C30.4593 30.2569 30.4685 30.2778 30.4783 30.2985C30.5138 30.3741 30.5466 30.451 30.5775 30.529C30.5884 30.5569 30.5998 30.5848 30.6101 30.6131C30.6402 30.6944 30.6671 30.777 30.692 30.8606C30.698 30.8807 30.705 30.9004 30.7107 30.9208C30.7386 31.0209 30.7625 31.1229 30.7826 31.226C30.7843 31.2348 30.7853 31.2436 30.7871 31.2524C30.5984 31.2059 30.4089 31.1639 30.2189 31.1243C30.1699 31.1141 30.1207 31.1047 30.0714 31.095C29.8449 31.0499 29.6177 31.0084 29.3894 30.9729C29.3716 30.9702 29.3541 30.9667 29.3361 30.9639C29.0923 30.9268 28.8474 30.8967 28.6019 30.8704C28.5539 30.8653 28.506 30.8598 28.458 30.8551C28.2158 30.8313 27.973 30.8127 27.7295 30.7995C27.6855 30.7971 27.6416 30.7956 27.5976 30.7936C27.3414 30.7819 27.0845 30.7741 26.8267 30.7741C26.5689 30.7741 26.3123 30.7819 26.0558 30.7936C26.0119 30.7956 25.9677 30.7971 25.9238 30.7995C25.6802 30.8125 25.4373 30.8313 25.1953 30.8551C25.147 30.8598 25.0992 30.8653 25.0511 30.8704C24.8056 30.8965 24.5609 30.9266 24.3171 30.9639C24.2992 30.9667 24.2814 30.9702 24.2634 30.9729C24.0355 31.0084 23.8086 31.0497 23.5824 31.0948C23.5328 31.1045 23.4832 31.1139 23.4337 31.1243C23.2439 31.1639 23.0546 31.2059 22.8662 31.2524C22.8677 31.244 22.8687 31.235 22.8705 31.2264ZM20.4048 35.3172C20.4334 35.302 20.4617 35.286 20.4904 35.2709C20.85 35.0817 21.2193 34.9081 21.5968 34.7508C21.6398 34.7331 21.6832 34.7163 21.7263 34.6989C21.8586 34.6454 21.9921 34.5942 22.1265 34.5448C22.2164 34.5118 22.3064 34.4801 22.3966 34.4491C22.5043 34.4122 22.6123 34.3762 22.7209 34.3418C22.817 34.3116 22.9132 34.2823 23.0099 34.254C23.1175 34.2225 23.2255 34.1926 23.3343 34.1639C23.4312 34.1381 23.5283 34.1131 23.6257 34.0897C23.7377 34.0627 23.8505 34.0377 23.9634 34.0133C24.0584 33.993 24.1533 33.9727 24.2484 33.9543C24.3673 33.9315 24.4873 33.9114 24.6074 33.8916C24.6982 33.8766 24.789 33.8612 24.8802 33.8481C25.0084 33.8297 25.1375 33.8147 25.2668 33.8C25.3517 33.7903 25.4363 33.7793 25.5214 33.7711C25.6658 33.7575 25.8113 33.7479 25.957 33.7387C26.0283 33.7342 26.0992 33.7276 26.1707 33.7243C26.388 33.7139 26.6064 33.7081 26.8263 33.7081C27.0461 33.7081 27.2644 33.7139 27.4818 33.7243C27.5535 33.7276 27.6248 33.7342 27.6964 33.7387C27.8418 33.7479 27.9869 33.7573 28.1308 33.7711C28.2164 33.7793 28.3013 33.7905 28.3865 33.8002C28.5154 33.8149 28.6441 33.8299 28.7718 33.8483C28.8634 33.8614 28.9545 33.877 29.0459 33.892C29.1656 33.9118 29.2851 33.9319 29.4037 33.9545C29.4994 33.9729 29.5945 33.9932 29.6898 34.0137C29.8025 34.0379 29.9148 34.0627 30.0263 34.0897C30.1242 34.1133 30.2216 34.1385 30.3189 34.1643C30.4271 34.193 30.5347 34.2227 30.642 34.254C30.739 34.2823 30.8357 34.3118 30.9324 34.3422C31.0406 34.3764 31.1482 34.4122 31.2552 34.4491C31.3461 34.4803 31.4365 34.512 31.5267 34.5452C31.6611 34.5948 31.7949 34.6458 31.9273 34.6995C31.9701 34.7166 32.013 34.7333 32.0554 34.751C32.4334 34.9084 32.8027 35.0821 33.1627 35.2715C33.191 35.2864 33.2187 35.302 33.2468 35.317C33.3939 35.3958 33.5392 35.4772 33.683 35.5612C33.7273 35.5872 33.7718 35.6133 33.8158 35.6397C33.9437 35.7163 34.0699 35.7954 34.1949 35.876C34.2421 35.9065 34.29 35.9362 34.3369 35.9674C34.4728 36.0575 34.6066 36.1506 34.7392 36.2454C34.8453 36.3213 34.9494 36.3995 35.0529 36.4784C35.1105 36.5221 35.1685 36.5653 35.2254 36.6098C35.3351 36.6961 35.4433 36.7844 35.5503 36.8741C35.573 36.893 35.5957 36.912 35.6183 36.9311C38.248 39.1625 39.9873 42.3497 40.3843 45.8327C40.392 45.9002 40.4007 45.9674 40.4072 46.0354C40.4166 46.1309 40.4236 46.2268 40.4308 46.3227C40.44 46.444 40.448 46.5659 40.4539 46.6879C40.456 46.7333 40.4582 46.7786 40.4599 46.8241H39.6752H32.4802C27.9998 46.8241 23.2523 43.3797 20.8214 41.3266C20.7505 41.2666 20.6771 41.211 20.6025 41.1575C20.5814 41.1424 20.5603 41.128 20.539 41.1133C20.4793 41.0723 20.4185 41.0334 20.3568 40.9967C20.3386 40.9858 20.3209 40.9745 20.3025 40.9639C20.2246 40.9194 20.1455 40.8778 20.065 40.8397C20.0468 40.8311 20.0283 40.8235 20.0101 40.8153C19.9449 40.7858 19.8789 40.7582 19.8123 40.7331C19.788 40.7239 19.764 40.7147 19.7396 40.7061C19.6603 40.678 19.5804 40.6522 19.4994 40.6301C19.4941 40.6288 19.489 40.6268 19.4837 40.6254C19.3982 40.6026 19.3115 40.584 19.2244 40.5678C19.1994 40.5631 19.1742 40.5592 19.1492 40.5551C19.0806 40.544 19.0119 40.5348 18.9427 40.5278C18.9207 40.5256 18.8986 40.5227 18.8765 40.5209C18.7884 40.5137 18.7002 40.5098 18.6117 40.5092C18.6068 40.5092 18.6017 40.5086 18.5968 40.5086C18.5779 40.5086 18.5591 40.5106 18.5402 40.5108C18.4837 40.5118 18.4271 40.5135 18.3705 40.5172C18.3412 40.5192 18.3119 40.5219 18.2824 40.5247C18.2296 40.5295 18.1771 40.5354 18.1244 40.5428C18.0949 40.5469 18.0654 40.551 18.0359 40.5559C17.9802 40.5651 17.9248 40.576 17.8695 40.5879C17.8443 40.5934 17.8191 40.5981 17.7939 40.604C17.7138 40.6231 17.6339 40.6444 17.5545 40.6694C16.4193 41.0262 15.5587 41.9258 15.2523 43.076L14.2537 46.8243H13.9759H13.1912C13.1929 46.779 13.1949 46.7336 13.1972 46.6883C13.2031 46.5659 13.2113 46.444 13.2205 46.3225C13.2279 46.2268 13.2347 46.1311 13.2441 46.0358C13.2507 45.9674 13.2595 45.8997 13.2671 45.8317C13.6644 42.3489 15.4037 39.1624 18.0332 36.9311C18.0556 36.9122 18.0783 36.8932 18.1009 36.8743C18.2082 36.7846 18.3166 36.6961 18.4265 36.6096C18.4826 36.5657 18.5398 36.5231 18.5964 36.4801C18.7017 36.4 18.8074 36.3208 18.9152 36.2436C19.0466 36.1497 19.1795 36.0573 19.3142 35.968C19.3617 35.9366 19.4101 35.9065 19.458 35.8756C19.5826 35.7954 19.708 35.7167 19.8353 35.6405C19.8798 35.6137 19.9246 35.5874 19.9695 35.5612C20.1136 35.4768 20.2584 35.3958 20.4048 35.3172ZM4.16109 67.2002C3.3943 66.9575 2.89137 66.2251 2.93785 65.4192C3.14742 61.7907 4.03219 54.436 7.60504 45.9458C11.15 37.5221 15.8713 33.5 19.8718 31.6028C19.8714 31.6088 19.8716 31.6149 19.8713 31.6209C19.8642 31.7483 19.8601 31.8766 19.8601 32.0057C19.8601 32.1057 19.8623 32.2057 19.8668 32.3061C19.8121 32.3315 19.7587 32.3592 19.7043 32.385C19.6589 32.4067 19.6138 32.429 19.5687 32.4508C19.3773 32.5444 19.1879 32.6415 19.0009 32.742C18.9666 32.7606 18.9318 32.7784 18.8976 32.7971C18.6796 32.9165 18.4644 33.0397 18.2531 33.1682C18.2222 33.187 18.1921 33.2071 18.1613 33.226C17.9941 33.3292 17.8291 33.435 17.666 33.5438C17.589 33.595 17.5127 33.6473 17.4365 33.6999C17.3263 33.776 17.2175 33.8538 17.1095 33.9327C17.0162 34.0004 16.9222 34.0678 16.8302 34.1375C16.8199 34.1454 16.8099 34.1538 16.7998 34.1616C13.3031 36.8252 10.8947 40.844 10.3613 45.4282C10.3566 45.4678 10.3505 45.5071 10.3463 45.5469C10.3338 45.6616 10.3242 45.7768 10.314 45.892C10.3005 46.0418 10.289 46.1918 10.2796 46.3424C10.2744 46.4299 10.2687 46.5172 10.2648 46.6049C10.2537 46.8467 10.2461 47.0893 10.2457 47.3329C10.2072 47.3563 10.1701 47.3817 10.1326 47.4065C10.117 47.4168 10.1011 47.4264 10.0857 47.437C10.0037 47.493 9.92438 47.5526 9.84762 47.6151C9.83121 47.6284 9.81539 47.6424 9.79918 47.6561C9.73238 47.7125 9.66754 47.7713 9.60524 47.8325C9.59332 47.8442 9.58082 47.8553 9.5691 47.8672C9.49938 47.9375 9.43297 48.011 9.36949 48.0868C9.35524 48.104 9.34137 48.1213 9.32731 48.1389C9.27164 48.2081 9.21813 48.279 9.16754 48.3524C9.15953 48.3641 9.15074 48.3754 9.14274 48.3872C9.08727 48.4696 9.03609 48.5549 8.98766 48.6422C8.97633 48.6627 8.96559 48.6834 8.95445 48.7042C8.91149 48.7854 8.87106 48.868 8.83453 48.9528C8.83024 48.9627 8.82516 48.9725 8.82106 48.9827C8.78199 49.0754 8.74781 49.1706 8.71676 49.2672C8.70934 49.2905 8.70231 49.3139 8.69527 49.3374C8.66754 49.4303 8.64254 49.5243 8.62242 49.6204C8.62106 49.627 8.6191 49.6334 8.61774 49.6399C8.59703 49.7411 8.58238 49.844 8.57066 49.9481C8.56774 49.9735 8.56539 49.9989 8.56305 50.0245C8.55348 50.1301 8.54684 50.2364 8.54684 50.3444V52.62C8.54684 54.561 10.1261 56.1403 12.0671 56.1403H13.1482C13.1492 56.1434 13.1504 56.1463 13.1513 56.1495C13.1798 56.2411 13.2127 56.3309 13.2429 56.4217C14.4572 60.1016 17.0959 63.1094 20.5937 64.7959C20.6123 64.8049 20.6306 64.8141 20.6494 64.8231C20.7281 64.8606 20.8048 64.9014 20.8843 64.9376V65.7629C20.8843 66.027 20.6964 66.2565 20.4369 66.3086L19.3464 66.5282C19.3045 66.5368 19.2629 66.5469 19.2216 66.559L10.7257 69.06C10.723 69.0608 10.7201 69.0618 10.7173 69.0627C10.6041 69.0961 10.4906 69.1317 10.3775 69.1692L4.16109 67.2002ZM12.5273 52.594C12.5326 52.7073 12.5425 52.8194 12.5505 52.9319C12.5572 53.0233 12.5611 53.1147 12.5693 53.2061H12.067C11.7435 53.2061 11.4802 52.9428 11.4802 52.6194V50.3438C11.4802 50.0204 11.7435 49.7571 12.067 49.7571H12.4525H12.5099V51.909C12.5099 52.1372 12.5162 52.3655 12.5273 52.594ZM47.874 94.5153H47.8734H43.8339V80.6797C43.8339 79.9442 43.5945 79.2163 43.1599 78.6303C41.297 76.118 38.3207 74.6182 35.1982 74.6182C32.2466 74.6182 29.4703 75.9209 27.5808 78.192C27.3216 78.5038 26.997 78.5504 26.8265 78.5504C26.656 78.5504 26.3314 78.5039 26.072 78.192C24.1828 75.9207 21.4062 74.6182 18.4548 74.6182C15.3324 74.6182 12.356 76.118 10.4931 78.6303C10.0584 79.2165 9.8191 79.9444 9.8191 80.6799V83.3084C9.8191 84.1186 10.4759 84.7752 11.2859 84.7752C12.0959 84.7752 12.7527 84.1184 12.7527 83.3084V80.6799C12.7527 80.5694 12.7871 80.4622 12.8496 80.3778C14.1812 78.5819 16.2244 77.5518 18.4548 77.5518C20.5322 77.5518 22.4865 78.469 23.8168 80.0682C24.5654 80.968 25.6623 81.4842 26.8267 81.484C27.991 81.484 29.0879 80.968 29.8363 80.0682C31.1666 78.469 33.1209 77.5518 35.1984 77.5518C37.4289 77.5518 39.472 78.5817 40.8037 80.3778C40.866 80.462 40.9004 80.5692 40.9004 80.6797V94.5153H12.7527V90.1334C12.7527 89.3233 12.0959 88.6666 11.2859 88.6666C10.4759 88.6666 9.8191 89.3235 9.8191 90.1334V94.5153H5.77945V79.5944C5.77945 76.184 7.97828 73.117 11.1734 71.9979C11.1961 71.9899 11.2185 71.9811 11.2412 71.9733C11.2814 71.9596 11.3224 71.9477 11.363 71.9346C11.4269 71.9141 11.4908 71.8926 11.5546 71.8739H11.5545L19.988 69.3905L21.0154 69.184C21.1154 69.1639 21.2136 69.1395 21.3101 69.111C21.3429 69.1014 21.3744 69.0887 21.4066 69.0782C21.4693 69.0577 21.5324 69.0377 21.5935 69.0139C21.6314 68.9991 21.6677 68.9813 21.7048 68.9653C21.7586 68.942 21.8127 68.9198 21.8648 68.8942C21.9035 68.875 21.9404 68.8532 21.9783 68.8329C22.0267 68.8067 22.0757 68.7813 22.1228 68.753C22.1611 68.7299 22.1974 68.7043 22.2345 68.6799C22.2789 68.6508 22.3236 68.6225 22.3666 68.5915C22.4035 68.5647 22.4382 68.5358 22.474 68.5079C22.5146 68.4758 22.5558 68.4446 22.5951 68.411C22.63 68.3811 22.6629 68.3491 22.6964 68.3178C22.7337 68.2831 22.7714 68.2489 22.8072 68.2127C22.8398 68.1797 22.8703 68.145 22.9015 68.1108C22.9355 68.0735 22.9697 68.0368 23.0021 67.9981C23.032 67.9622 23.0601 67.9249 23.0886 67.8879C23.1191 67.8483 23.15 67.809 23.1787 67.768C23.2056 67.7297 23.2308 67.6901 23.2564 67.6504C23.2836 67.6086 23.3107 67.5668 23.3359 67.5239C23.3597 67.4832 23.3818 67.4417 23.4041 67.3999C23.4277 67.3559 23.4511 67.312 23.4728 67.2668C23.4933 67.2243 23.5121 67.1807 23.5308 67.1372C23.5507 67.0913 23.5703 67.0454 23.5882 66.9985C23.6052 66.954 23.6205 66.9088 23.6355 66.8637C23.6515 66.8161 23.6671 66.7682 23.681 66.7196C23.6943 66.6737 23.7058 66.6274 23.7171 66.5807C23.7293 66.5313 23.7406 66.4819 23.7505 66.4317C23.7599 66.3844 23.7675 66.337 23.775 66.2893C23.7828 66.2385 23.7898 66.1875 23.7955 66.136C23.8007 66.0877 23.8046 66.0395 23.8078 65.9907C23.8095 65.9627 23.8136 65.9354 23.8148 65.9073C23.84 65.9127 23.8658 65.9163 23.8912 65.9215C23.9974 65.9438 24.1048 65.962 24.2119 65.9819C24.3382 66.0053 24.4642 66.0299 24.5914 66.0499C24.7166 66.0696 24.8431 66.0846 24.9695 66.101C25.0795 66.1153 25.189 66.1313 25.2996 66.143C25.4425 66.1583 25.5869 66.1684 25.731 66.1793C25.8269 66.1866 25.9226 66.1959 26.0187 66.2012C26.1691 66.2096 26.3207 66.2127 26.472 66.2165C26.564 66.2186 26.6558 66.2229 26.7478 66.2235C26.7742 66.2237 26.8002 66.2254 26.8267 66.2254C26.9568 66.2254 27.0855 66.219 27.2148 66.2157C27.3023 66.2133 27.3898 66.2129 27.4773 66.209C27.639 66.2018 27.7994 66.1891 27.9597 66.1766C28.041 66.1702 28.1222 66.1659 28.2033 66.1581C28.3677 66.1422 28.5304 66.1213 28.6931 66.1C28.7701 66.0899 28.8472 66.0819 28.9238 66.0706C29.0959 66.0452 29.266 66.0145 29.4359 65.9831C29.4914 65.9727 29.5474 65.9655 29.6027 65.9545C29.6035 65.9663 29.6056 65.9778 29.6066 65.9895C29.6101 66.0334 29.616 66.0768 29.6212 66.1206C29.6277 66.1756 29.6341 66.2305 29.6431 66.2848C29.6504 66.3286 29.6597 66.3715 29.6687 66.4147C29.6796 66.4676 29.6906 66.5206 29.7041 66.5725C29.715 66.6155 29.7277 66.6579 29.7404 66.7002C29.7554 66.7512 29.7711 66.8018 29.7884 66.852C29.8031 66.894 29.8189 66.9352 29.8351 66.9764C29.8543 67.0254 29.874 67.0741 29.8953 67.1221C29.9132 67.1625 29.9322 67.2024 29.9517 67.242C29.9748 67.2889 29.9984 67.3352 30.0234 67.3809C30.0447 67.4198 30.0666 67.4581 30.0892 67.4959C30.116 67.5407 30.1435 67.5846 30.172 67.628C30.1963 67.6649 30.2211 67.7012 30.2466 67.7372C30.2769 67.7793 30.3082 67.8207 30.3402 67.8616C30.3673 67.8963 30.3947 67.9307 30.4232 67.9643C30.4568 68.0041 30.4918 68.0426 30.5271 68.0809C30.557 68.1131 30.5867 68.1454 30.6177 68.1764C30.6546 68.2135 30.6929 68.2491 30.7316 68.2844C30.7638 68.3141 30.7959 68.3438 30.8291 68.3721C30.8693 68.4065 30.9111 68.4389 30.9529 68.4713C30.9871 68.4979 31.0211 68.525 31.0562 68.5502C31.1 68.5817 31.1453 68.6108 31.1906 68.6403C31.2265 68.6635 31.2617 68.6877 31.2984 68.7096C31.3459 68.7379 31.3949 68.7637 31.4437 68.7899C31.4806 68.8096 31.5168 68.8305 31.5545 68.8491C31.6066 68.8747 31.6605 68.8971 31.7142 68.92C31.7507 68.9356 31.7865 68.9528 31.8236 68.9672C31.8843 68.9909 31.9468 69.0108 32.0091 69.0309C32.0412 69.0413 32.072 69.0536 32.1045 69.0629C32.2 69.0909 32.2972 69.1153 32.3964 69.1352L33.665 69.3905L42.099 71.8737C42.2048 71.9047 42.3095 71.9381 42.4134 71.9735C42.4253 71.9776 42.4371 71.9823 42.449 71.9864C45.6609 73.0961 47.874 76.1725 47.874 79.594V94.5153V94.5153ZM82.2007 70.0026L84.2009 73.5344L78.3898 82.535L82.2007 70.0026ZM74.7468 74.4549H73.1277L72.555 73.4627L73.9375 72.2006L75.3197 73.4625L74.7468 74.4549ZM75.1212 83.2002L74.4732 85.3313L73.9373 87.0936L72.7539 83.202L73.5584 77.3887H74.3089L75.1212 83.2002ZM70.0253 68.8569C70.9193 69.0918 71.8314 69.2426 72.7486 69.3135L69.706 72.0915C69.6099 72.1791 69.5326 72.2797 69.4648 72.3854L68.25 68.3905L70.0253 68.8569ZM69.9746 65.8104C70.2902 65.2942 70.4814 64.6971 70.5105 64.0659C70.6509 64.0995 70.792 64.1307 70.9336 64.1602C70.9761 64.169 71.0191 64.1766 71.0617 64.1852C71.2406 64.2207 71.4201 64.253 71.6004 64.2817C71.6443 64.2887 71.688 64.2967 71.7322 64.3034C71.9261 64.3325 72.1211 64.3563 72.3162 64.3778C72.3804 64.3848 72.4443 64.3922 72.5088 64.3985C72.6978 64.4166 72.8875 64.4309 73.0771 64.4418C73.1455 64.4457 73.214 64.4493 73.2828 64.4524C73.4757 64.461 73.6689 64.4661 73.8621 64.467C73.8873 64.4672 73.9121 64.469 73.9375 64.469C73.975 64.469 74.0119 64.4665 74.0494 64.4661C74.2502 64.4647 74.4509 64.4604 74.6515 64.4508C74.6992 64.4485 74.7466 64.445 74.7943 64.4422C74.9875 64.4311 75.1804 64.4166 75.373 64.3981C75.4037 64.3952 75.4345 64.393 75.4652 64.3899C75.6824 64.3676 75.8988 64.3391 76.1146 64.3071C76.1482 64.302 76.182 64.2975 76.2156 64.2922C76.4324 64.2586 76.6482 64.2196 76.8629 64.1764C76.89 64.1709 76.9171 64.1655 76.9441 64.1598C76.9986 64.1485 77.0533 64.1381 77.1076 64.1262C77.1562 64.7586 77.3675 65.353 77.7029 65.8624L77.1037 66.0198C75.032 66.5641 72.8423 66.5641 70.7709 66.0198L69.9746 65.8104ZM75.1261 69.3135C76.0433 69.2428 76.9552 69.0918 77.8492 68.8569L79.6246 68.3905L78.4099 72.3852C78.3423 72.2797 78.2648 72.1791 78.1687 72.0915L75.1261 69.3135ZM88.6277 50.8694C88.6384 50.7286 88.6511 50.5881 88.658 50.4461C88.6697 50.2073 88.6761 49.9684 88.6761 49.7299V47.4592H89.1363C89.1425 47.4592 89.1496 47.4598 89.1556 47.4598C89.1978 47.4602 89.2398 47.4647 89.281 47.4735C89.2839 47.4741 89.2871 47.4749 89.2898 47.4756C89.3181 47.4821 89.3431 47.4926 89.3691 47.5018C89.3849 47.5077 89.4013 47.5106 89.4169 47.5176C89.4171 47.5176 89.4171 47.5178 89.4173 47.5178C89.6523 47.6239 89.8041 47.8577 89.8041 48.1131V50.4635C89.8041 50.8243 89.5105 51.1176 89.15 51.1176H88.6103C88.6177 51.035 88.6212 50.9522 88.6277 50.8694ZM58.725 51.1176C58.3642 51.1178 58.0709 50.8243 58.0709 50.4637V48.1133C58.0709 47.8581 58.2224 47.6245 58.458 47.5178C58.4963 47.5006 58.5355 47.4885 58.575 47.479C58.5818 47.4772 58.5873 47.4752 58.5947 47.4735C58.6361 47.4647 58.6779 47.4602 58.7201 47.4598C58.7261 47.4598 58.7324 47.4594 58.7384 47.4592H59.1986V49.7299C59.1986 49.9684 59.205 50.2073 59.2168 50.4461C59.2236 50.5877 59.2361 50.7276 59.2468 50.868C59.2533 50.9512 59.2568 51.0344 59.2646 51.1176H58.725V51.1176ZM61.0855 39.9881C61.0297 40.004 60.9752 40.0231 60.9222 40.0452C60.899 40.0549 60.8771 40.067 60.8545 40.078C60.8259 40.0917 60.7968 40.1042 60.7693 40.1196C60.742 40.1348 60.7166 40.1528 60.6904 40.1696C60.6693 40.1833 60.6472 40.1958 60.6267 40.2104C60.5996 40.2299 60.5746 40.252 60.549 40.2733C60.5314 40.2879 60.5129 40.3014 60.4961 40.3168C60.4707 40.3399 60.4476 40.3653 60.424 40.3901C60.4087 40.4061 60.3927 40.4209 60.3783 40.4375C60.3554 40.4637 60.3351 40.4918 60.3142 40.5198C60.3011 40.5372 60.2873 40.5536 60.275 40.5715C60.2552 40.6004 60.2378 40.6309 60.2203 40.6614C60.2093 40.6801 60.1974 40.6981 60.1873 40.7174C60.1709 40.7485 60.1572 40.7811 60.1429 40.8135C60.1355 40.8307 60.1263 40.8469 60.1195 40.8645C60.1168 40.8713 60.1144 40.878 60.1117 40.8848C60.1109 40.887 60.1097 40.8891 60.1088 40.8913C60.1074 40.8952 60.106 40.8993 60.1047 40.9032C60.1045 40.9036 60.1043 40.9043 60.1041 40.9047C60.1031 40.9075 60.1021 40.9102 60.1011 40.9129C60.0252 41.1196 59.9548 41.3276 59.8884 41.5368C59.8871 41.5413 59.8853 41.5456 59.8839 41.5499C59.883 41.5528 59.8822 41.5557 59.8814 41.5584C59.6195 42.3872 59.4312 43.235 59.3201 44.0967V42.8079C59.3201 35.9934 64.864 30.4493 71.6787 30.4493H76.1955C83.0099 30.4493 88.5541 35.9932 88.5541 42.8079V44.1004C88.5439 44.0219 88.5314 43.9436 88.5201 43.8653C88.5191 43.8588 88.5185 43.8524 88.5175 43.8459L88.498 43.7112C88.4976 43.7086 88.497 43.7057 88.4966 43.7032C88.465 43.5012 88.4289 43.3002 88.389 43.1002C88.3886 43.0987 88.3884 43.0971 88.3882 43.0957L88.3556 42.9393C88.3548 42.936 88.3541 42.9329 88.3533 42.9295C88.3144 42.7461 88.2726 42.5637 88.2269 42.3821C88.2257 42.3774 88.225 42.3729 88.2238 42.3682L88.2103 42.3129C88.2088 42.3069 88.2074 42.3008 88.2058 42.2948C88.2056 42.294 88.2052 42.2934 88.205 42.2926C88.2033 42.2858 88.2013 42.2788 88.1994 42.2717C88.1908 42.2403 88.1767 42.2118 88.1662 42.1813C88.1507 42.137 88.1371 42.092 88.1177 42.0499C88.1031 42.0182 88.0843 41.9893 88.0675 41.959C88.0455 41.9188 88.025 41.8776 87.9994 41.8399C87.9796 41.811 87.9562 41.7854 87.9347 41.7581C87.9072 41.7231 87.881 41.6868 87.8505 41.6545C87.8252 41.6278 87.7962 41.6049 87.7691 41.5803C87.738 41.552 87.7084 41.5223 87.675 41.4967C87.6427 41.4721 87.6072 41.4522 87.573 41.4303C87.5408 41.4098 87.5101 41.3872 87.4765 41.3692C87.4375 41.3483 87.3957 41.3329 87.3546 41.3155C87.3226 41.302 87.2918 41.2858 87.2587 41.2747C87.2146 41.2596 87.1685 41.2506 87.1228 41.2399C87.09 41.2321 87.0584 41.2215 87.025 41.2161C86.9806 41.2088 86.9349 41.2079 86.8896 41.2047C86.855 41.2022 86.8214 41.1961 86.7865 41.1961C86.781 41.1961 86.7755 41.1961 86.7701 41.1961H86.7697L86.7353 41.1965C86.4777 41.1995 86.2254 41.27 86.0037 41.4014C84.4295 42.3348 82.3437 42.8081 79.8048 42.8081C77.2244 42.8081 74.6127 41.9895 72.0871 41.1979C68.8884 40.1954 65.5922 39.1633 62.238 39.7301C62.205 39.7358 62.172 39.7403 62.1388 39.7461C62.1275 39.7483 62.116 39.7508 62.1046 39.7528C61.7652 39.8143 61.4257 39.8918 61.0855 39.9881ZM62.4037 52.2409C62.3625 52.0508 62.3259 51.8602 62.2941 51.669C62.292 51.6561 62.2892 51.6432 62.2871 51.6303C62.2541 51.4278 62.2265 51.2247 62.2041 51.0213C62.2033 51.0141 62.2021 51.0071 62.2013 50.9999C62.1798 50.8022 62.1642 50.6043 62.1527 50.4067C62.1519 50.3916 62.1502 50.3768 62.1492 50.3618C62.1377 50.151 62.1318 49.9403 62.1318 49.7299V46.0151C62.1318 46.0073 62.132 45.9995 62.132 45.9922C62.132 45.9918 62.132 45.9915 62.132 45.9911C62.132 45.8749 62.1349 45.7588 62.1384 45.643C62.1402 45.5887 62.1421 45.5336 62.1447 45.477C62.1464 45.4368 62.149 45.3965 62.1511 45.3563C62.1519 45.3465 62.1523 45.3368 62.1531 45.327L62.1601 45.2282C62.1681 45.1043 62.1763 44.9807 62.1882 44.8567C62.1882 44.8565 62.1882 44.8561 62.1882 44.8559C62.1935 44.8006 62.2002 44.7457 62.2066 44.6911L62.2142 44.6264C62.2269 44.5166 62.2402 44.4069 62.256 44.2971C62.2675 44.2165 62.2808 44.1364 62.2941 44.0561C62.3113 43.9526 62.3295 43.8497 62.3496 43.7458C62.3652 43.6643 62.3816 43.5832 62.399 43.5028C62.4207 43.4024 62.4441 43.3024 62.4681 43.2032L62.4738 43.1797C62.4914 43.1075 62.5088 43.0352 62.5283 42.962C62.5548 42.8618 62.5843 42.7624 62.613 42.6641L62.6201 42.6405C62.6816 42.6293 62.7437 42.6225 62.8054 42.6127C62.9123 42.5959 63.0189 42.5774 63.1261 42.5647C63.2609 42.5487 63.3964 42.5383 63.532 42.5286C63.567 42.526 63.6017 42.5213 63.6369 42.5192C65.6439 42.3989 67.7423 42.9346 69.9244 43.5985C70.3496 43.7278 70.7775 43.8616 71.2089 43.9967C73.0902 44.5864 75.0154 45.1897 77.0195 45.5092C77.9304 45.6545 78.8576 45.7411 79.8043 45.7411C80.2701 45.7411 80.722 45.7237 81.1654 45.6958C81.4902 45.6752 81.8107 45.6491 82.1232 45.6135C82.1464 45.611 82.1707 45.6094 82.1939 45.6067C82.3531 45.5879 82.5076 45.5639 82.6634 45.5413C82.7558 45.5278 82.8505 45.5172 82.9418 45.5024C83.0359 45.4872 83.1265 45.4676 83.2195 45.451C83.3685 45.4243 83.5189 45.3991 83.6648 45.3686C83.7593 45.3489 83.8502 45.3247 83.9433 45.3034C84.0834 45.2713 84.225 45.2409 84.3621 45.2053C84.4962 45.1704 84.6259 45.1301 84.7574 45.0918C84.8494 45.0651 84.9437 45.0409 85.0341 45.0124C85.1433 44.978 85.2482 44.9387 85.3554 44.9018C85.4636 44.8647 85.574 44.8299 85.68 44.7901L85.6826 44.8118C85.7 44.9852 85.7127 45.1594 85.7224 45.3338C85.7224 45.334 85.7224 45.3342 85.7224 45.3342L85.7285 45.4598C85.7285 45.461 85.7285 45.4622 85.7287 45.4635C85.7365 45.6389 85.7421 45.8147 85.7421 45.9907C85.7421 45.9911 85.7421 45.9913 85.7421 45.9917C85.7421 45.9989 85.7421 46.0065 85.7423 46.0145V49.7293C85.7423 49.9397 85.7365 50.1504 85.725 50.3612C85.7242 50.3762 85.7224 50.3911 85.7214 50.4061C85.7099 50.604 85.6943 50.8016 85.6728 50.9993C85.672 51.0065 85.6709 51.0137 85.6701 51.0209C85.6476 51.2241 85.6201 51.427 85.5871 51.6293C85.5849 51.6426 85.5822 51.6557 85.58 51.669C85.5482 51.86 85.5119 52.0504 85.4707 52.2403C84.5675 56.3915 81.4763 59.7352 77.4685 60.9944C77.4339 61.0051 77.3992 61.0149 77.3644 61.0254C77.2228 61.0686 77.0802 61.1094 76.9363 61.1473C76.8851 61.1608 76.8337 61.1729 76.7826 61.1856C76.6537 61.2176 76.5242 61.2479 76.3935 61.2756C76.3339 61.2883 76.2742 61.3002 76.2144 61.312C76.0902 61.3364 75.9654 61.3586 75.84 61.379C75.7761 61.3893 75.7123 61.3997 75.6482 61.409C75.5244 61.4272 75.3996 61.4424 75.2744 61.4567C75.2095 61.4641 75.1449 61.4721 75.0798 61.4784C74.9482 61.4911 74.8158 61.5002 74.683 61.5086C74.625 61.5122 74.5673 61.5174 74.5093 61.5202C74.3195 61.5293 74.1289 61.5346 73.9369 61.5346C73.741 61.5346 73.5464 61.5293 73.3529 61.5198C73.2861 61.5165 73.2199 61.51 73.1533 61.5057C73.0271 61.4973 72.9009 61.4891 72.7759 61.477C72.6939 61.469 72.6125 61.4579 72.5306 61.4481C72.4228 61.4352 72.3148 61.4227 72.2078 61.4069C72.1162 61.3934 72.0252 61.377 71.9339 61.3614C71.8392 61.3452 71.7443 61.3292 71.6502 61.3106C71.5502 61.2909 71.4507 61.2684 71.3511 61.2461C71.2679 61.2274 71.1847 61.209 71.1023 61.1885C70.9953 61.162 70.8888 61.1331 70.7824 61.1034C70.7091 61.0831 70.6359 61.0627 70.5632 61.0411C70.4523 61.0079 70.342 60.9725 70.232 60.936C70.1636 60.9133 70.0953 60.8905 70.0273 60.8666C69.9191 60.8286 69.8117 60.7885 69.7043 60.7471C66.0404 59.3348 63.2533 56.1463 62.4037 52.2409ZM65.6738 70.0026L69.4847 82.5348L63.6736 73.5342L65.6738 70.0026ZM91.4171 94.5055V80.4471C91.4171 79.637 90.7605 78.9803 89.9504 78.9803C89.1402 78.9803 88.4836 79.6372 88.4836 80.4471V94.5055H59.1783V90.1333C59.1783 89.3231 58.5214 88.6665 57.7115 88.6665C56.9015 88.6665 56.2447 89.3233 56.2447 90.1333V94.5055H50.8074V79.5944V79.0094C50.8074 75.0772 53.4418 71.5553 57.214 70.4448L63.0203 68.735L60.8375 72.5891C60.4568 73.261 60.5 74.086 60.9427 74.7129L72.705 92.9311C72.7072 92.9344 72.7099 92.9373 72.7121 92.9407C72.7199 92.9524 72.7277 92.9641 72.7357 92.9756C72.7418 92.9842 72.7484 92.9924 72.7546 93.001C72.7732 93.0264 72.7921 93.0518 72.8123 93.076C72.8193 93.0844 72.8269 93.0922 72.8341 93.1006C72.8523 93.1215 72.8703 93.1426 72.8896 93.1623C72.8904 93.1631 72.8912 93.1637 72.8919 93.1645C72.9037 93.1764 72.9164 93.1874 72.9285 93.1989C72.9392 93.2092 72.95 93.2196 72.9611 93.2293C72.9898 93.2549 73.0197 93.2791 73.0505 93.3026C73.0576 93.3081 73.0642 93.3137 73.0714 93.3188C73.0771 93.3229 73.0822 93.3274 73.0879 93.3315C73.0916 93.3342 73.0957 93.3364 73.0994 93.3389C73.1396 93.3668 73.1818 93.3926 73.2253 93.4168C73.2345 93.4219 73.2433 93.4274 73.2527 93.4323C73.2611 93.4368 73.2701 93.4403 73.2787 93.4446C73.2925 93.4516 73.3058 93.4596 73.3201 93.4663C73.3361 93.4737 73.3525 93.4788 73.3685 93.4856C73.3912 93.4952 73.414 93.5045 73.4371 93.5129C73.4482 93.517 73.4589 93.5223 73.4701 93.526C73.472 93.5266 73.4742 93.5272 73.4761 93.5278C73.4966 93.5346 73.5173 93.5389 73.5378 93.545C73.5582 93.5506 73.5783 93.5569 73.5988 93.5618C73.6242 93.5678 73.6496 93.5725 73.6752 93.5772C73.691 93.5801 73.7068 93.5827 73.7226 93.585C73.7373 93.5872 73.7515 93.5903 73.7662 93.592C73.8228 93.5987 73.8796 93.6026 73.9361 93.6026C73.9363 93.6026 73.9367 93.6026 73.9369 93.6026C73.9371 93.6026 73.9375 93.6026 73.9377 93.6026C73.9943 93.6026 74.0509 93.5987 74.1076 93.592C74.1222 93.5903 74.1367 93.5872 74.1513 93.585C74.1669 93.5827 74.1826 93.5801 74.198 93.5774C74.2238 93.5727 74.2494 93.568 74.275 93.562C74.2955 93.5571 74.3156 93.5508 74.3359 93.5452C74.3572 93.5391 74.3787 93.5346 74.3998 93.5276C74.4005 93.5274 74.4015 93.5272 74.4023 93.5268C74.4138 93.5229 74.4252 93.5174 74.4367 93.5131C74.4599 93.5047 74.4826 93.4954 74.5052 93.4858C74.5212 93.479 74.5379 93.4739 74.5537 93.4665C74.5683 93.4596 74.5818 93.4516 74.5962 93.4444C74.6041 93.4405 74.6125 93.4372 74.6203 93.4331C74.6298 93.428 74.639 93.4223 74.6484 93.4172C74.692 93.393 74.7341 93.3674 74.7744 93.3393C74.7781 93.3366 74.7822 93.3344 74.7859 93.3319C74.792 93.3276 74.7972 93.3229 74.8033 93.3184C74.8093 93.3139 74.815 93.309 74.8211 93.3045C74.8527 93.2807 74.8834 93.2557 74.9127 93.2297C74.9238 93.2198 74.9345 93.2094 74.9455 93.1991C74.9785 93.1678 75.0099 93.1352 75.0396 93.1012C75.047 93.0928 75.0546 93.0848 75.0619 93.0762C75.0826 93.0514 75.1019 93.0254 75.1209 92.9995C75.1263 92.992 75.132 92.985 75.1373 92.9774C75.1457 92.9655 75.1539 92.9534 75.1619 92.9413C75.164 92.9379 75.1668 92.935 75.1689 92.9317L86.9312 74.7135C87.374 74.0868 87.4173 73.2616 87.0367 72.5903L84.8537 68.7358L90.6601 70.4456C94.4322 71.5561 97.0666 75.078 97.0666 79.0102V94.5055H91.4171V94.5055Z" fill="black"/>
</g>
<defs>
<clipPath id="clip0_19_127">
<rect width="100" height="100" fill="white"/>
</clipPath>
</defs>
</svg>
