<svg width="94" height="94" viewBox="0 0 94 94" fill="none" xmlns="http://www.w3.org/2000/svg">
<path d="M48.9844 40.2656C48.779 40.2417 48.5709 40.2589 48.3722 40.316C48.1734 40.3732 47.9881 40.4692 47.8267 40.5986C47.6654 40.7279 47.5314 40.888 47.4324 41.0696C47.3334 41.2511 47.2714 41.4505 47.25 41.6562L47 44.0468C46.967 44.3379 46.8528 44.6139 46.6704 44.8432C46.4881 45.0725 46.245 45.2459 45.9688 45.3437L35.5625 48.9687C35.242 49.0801 34.9665 49.2929 34.7777 49.5748C34.5888 49.8567 34.4968 50.1924 34.5156 50.5312V64.4843C34.5144 64.6899 34.5539 64.8938 34.6316 65.0842C34.7094 65.2745 34.8239 65.4477 34.9688 65.5937L43.4375 74.0937C43.7058 74.3715 43.8617 74.7389 43.875 75.1249V89.1874C43.875 89.6018 43.7104 89.9993 43.4174 90.2923C43.1243 90.5853 42.7269 90.7499 42.3125 90.7499C41.8981 90.7499 41.5007 90.5853 41.2077 90.2923C40.9146 89.9993 40.75 89.6018 40.75 89.1874V76.4218C40.7512 76.2162 40.7118 76.0123 40.634 75.822C40.5563 75.6316 40.4417 75.4584 40.2969 75.3124L31.25 66.2031C31.104 66.0582 30.9309 65.9437 30.7405 65.8659C30.5501 65.7882 30.3463 65.7487 30.1406 65.7499H26.6875C26.2731 65.7499 25.8757 65.9146 25.5827 66.2076C25.2896 66.5006 25.125 66.898 25.125 67.3124V79.8124C25.1237 80.0698 25.0588 80.3228 24.9361 80.5491C24.8135 80.7753 24.6368 80.9678 24.4219 81.1093L10.3594 90.4843C10.0149 90.7104 9.59505 90.7914 9.19121 90.7094C8.78736 90.6275 8.43223 90.3893 8.20314 90.0468C7.977 89.7023 7.89609 89.2825 7.97803 88.8786C8.05997 88.4748 8.29812 88.1197 8.64064 87.8906L21.2969 79.4374C21.5118 79.2959 21.6885 79.1034 21.8111 78.8772C21.9338 78.651 21.9987 78.3979 22 78.1406V67.3124C22 66.898 21.8354 66.5006 21.5424 66.2076C21.2493 65.9146 20.8519 65.7499 20.4375 65.7499C20.0231 65.7499 19.6257 65.9146 19.3327 66.2076C19.0396 66.5006 18.875 66.898 18.875 67.3124V77.2968L6.90626 85.2812C6.06692 85.8379 5.42924 86.6502 5.08766 87.5978C4.74609 88.5453 4.71879 89.5776 5.00982 90.5419C5.30084 91.5061 5.89471 92.351 6.70346 92.9513C7.5122 93.5516 8.49281 93.8755 9.50001 93.8749C10.4226 93.8754 11.3249 93.6037 12.0938 93.0937L26.1563 83.7187C26.8004 83.2908 27.3286 82.7102 27.694 82.0286C28.0593 81.3471 28.2503 80.5857 28.25 79.8124V68.8749H29.4844L37.625 77.0624V89.1874C37.625 90.4306 38.1189 91.6229 38.9979 92.502C39.877 93.3811 41.0693 93.8749 42.3125 93.8749C43.5557 93.8749 44.748 93.3811 45.6271 92.502C46.5062 91.6229 47 90.4306 47 89.1874V75.1249C47.0031 73.8844 46.5142 72.6932 45.6406 71.8124L37.625 63.7656V51.5624L47 48.2968C47.8366 48.0072 48.5741 47.4867 49.1272 46.7954C49.6802 46.1041 50.0262 45.2703 50.125 44.3906L50.3906 41.9999C50.4144 41.7933 50.3967 41.5841 50.3386 41.3844C50.2805 41.1847 50.183 40.9987 50.0521 40.8372C49.9211 40.6756 49.7592 40.5419 49.5759 40.4437C49.3925 40.3456 49.1914 40.285 48.9844 40.2656Z" fill="black"/>
<path d="M17.125 59.5001L18.875 58.0939V61.0626C18.875 61.477 19.0396 61.8744 19.3326 62.1675C19.6257 62.4605 20.0231 62.6251 20.4375 62.6251C20.8519 62.6251 21.2493 62.4605 21.5423 62.1675C21.8354 61.8744 22 61.477 22 61.0626V54.8126C21.9992 54.5181 21.9151 54.2298 21.7575 53.981C21.5999 53.7322 21.3753 53.533 21.1094 53.4064C20.857 53.2944 20.5794 53.2513 20.3049 53.2815C20.0305 53.3117 19.7689 53.4141 19.5469 53.5782L15.2656 56.9845C15.0983 57.1188 14.9052 57.2173 14.6982 57.2738C14.4912 57.3302 14.2748 57.3434 14.0625 57.3126L4.68749 55.8907H4.43749C4.0593 55.8011 3.72809 55.5738 3.50851 55.2531C3.28894 54.9324 3.19677 54.5414 3.24999 54.1564C3.31586 53.7485 3.54058 53.3833 3.87499 53.1407C4.20593 52.8926 4.62173 52.7859 5.03124 52.8439L13.0781 54.0626C13.2894 54.0956 13.5051 54.0849 13.7121 54.0311C13.919 53.9774 14.1128 53.8817 14.2812 53.7501L22.3125 47.3595C22.7132 47.19 23.1329 47.0693 23.5625 47.0001H25.125C25.5394 47.0001 25.9368 46.8355 26.2298 46.5425C26.5229 46.2494 26.6875 45.852 26.6875 45.4376V44.7814C26.6886 44.4764 26.6004 44.1778 26.4338 43.9224C26.2672 43.6669 26.0295 43.4658 25.75 43.3439C24.434 42.7695 23.3559 41.7595 22.697 40.4838C22.038 39.208 21.8385 37.7443 22.1318 36.3387C22.4252 34.9331 23.1936 33.6714 24.3078 32.7657C25.422 31.86 26.8141 31.3656 28.25 31.3656C29.6859 31.3656 31.078 31.86 32.1922 32.7657C33.3064 33.6714 34.0748 34.9331 34.3682 36.3387C34.6615 37.7443 34.462 39.208 33.803 40.4838C33.1441 41.7595 32.066 42.7695 30.75 43.3439C30.4705 43.4658 30.2328 43.6669 30.0662 43.9224C29.8996 44.1778 29.8114 44.4764 29.8125 44.7814V45.4376C29.8125 45.852 29.9771 46.2494 30.2701 46.5425C30.5632 46.8355 30.9606 47.0001 31.375 47.0001H32.3437C32.746 46.9985 33.1322 46.8418 33.4219 46.5626C33.5813 46.4037 33.7732 46.2811 33.9844 46.2032L43.0625 43.0782C43.3416 42.9829 43.588 42.8105 43.7733 42.581C43.9585 42.3515 44.0751 42.0743 44.1094 41.7814L45.4375 29.6407C45.4846 29.2311 45.6917 28.8568 46.0137 28.5992C46.3356 28.3417 46.7463 28.2218 47.1562 28.2657C47.3604 28.2874 47.5669 28.2686 47.7638 28.2104C47.9607 28.1522 48.1442 28.0558 48.3038 27.9267C48.4635 27.7975 48.5961 27.6382 48.6941 27.4577C48.7921 27.2773 48.8535 27.0793 48.875 26.8751C48.9189 26.4652 48.799 26.0545 48.5415 25.7325C48.2839 25.4106 47.9096 25.2035 47.5 25.1564C46.8874 25.0868 46.267 25.1389 45.6746 25.3094C45.0821 25.48 44.529 25.7658 44.0472 26.1504C43.5653 26.535 43.164 27.011 42.8664 27.5509C42.5687 28.0908 42.3805 28.6842 42.3125 29.297L41.0781 40.422L36.5 41.9845C37.3151 40.4497 37.6875 38.7187 37.5758 36.9845C37.4641 35.2504 36.8726 33.5814 35.8673 32.1639C34.8621 30.7465 33.4826 29.6363 31.883 28.9574C30.2834 28.2784 28.5265 28.0575 26.8086 28.3191C25.0906 28.5808 23.4792 29.3148 22.1543 30.4392C20.8293 31.5635 19.8429 33.0341 19.3052 34.6865C18.7676 36.339 18.6998 38.1084 19.1094 39.7972C19.519 41.4859 20.39 43.0276 21.625 44.2501L20.8594 44.547L20.5156 44.7501L12.8594 50.8439L5.48437 49.7345C4.33072 49.5767 3.15963 49.8539 2.19916 50.5122C1.23869 51.1704 0.557595 52.1626 0.288512 53.2955C0.0194298 54.4284 0.181621 55.6208 0.743502 56.6407C1.30538 57.6606 2.22673 58.4348 3.32812 58.8126C3.57371 58.8916 3.82425 58.9542 4.07812 59.0001L13.4531 60.422C14.0956 60.5321 14.754 60.507 15.3863 60.3482C16.0185 60.1895 16.6107 59.9006 17.125 59.5001V59.5001Z" fill="black"/>
<path d="M92.2187 13.7343C91.7032 13.2817 91.0945 12.9477 90.4358 12.756C89.777 12.5643 89.0842 12.5196 88.4063 12.6249C87.2858 12.8425 86.2787 13.45 85.5636 14.3396C84.8485 15.2292 84.4717 16.3433 84.5 17.4843V37.6249H80.5469C81.4795 36.5721 82.1654 35.3245 82.5546 33.9729C82.9439 32.6214 83.0266 31.2 82.7969 29.8124C82.4739 27.9812 81.6136 26.2873 80.3254 24.9463C79.0372 23.6052 77.3793 22.6775 75.5625 22.2812C74.1869 21.9906 72.7639 22.0095 71.3966 22.3365C70.0292 22.6635 68.7516 23.2904 67.6563 24.1718C65.9693 25.5408 64.8101 27.4532 64.3769 29.5821C63.9438 31.711 64.2634 33.9243 65.2813 35.8437L60.7031 34.2812L59.4844 23.3437C59.396 22.153 58.8696 21.0372 58.0068 20.2119C57.144 19.3866 56.006 18.9103 54.8125 18.8749V18.8749C54.1572 18.8785 53.51 19.0193 52.9125 19.2885C52.315 19.5576 51.7806 19.949 51.3438 20.4374C50.8952 20.9239 50.5546 21.4998 50.3446 22.1273C50.1345 22.7547 50.0597 23.4196 50.125 24.0781L51.6875 38.1406C51.7864 39.0203 52.1323 39.8541 52.6854 40.5454C53.2384 41.2367 53.9759 41.7573 54.8125 42.0468L64.1875 45.3124V57.5156L56.1719 65.5624C55.2983 66.4432 54.8095 67.6344 54.8125 68.8749V82.7656C54.7842 83.9066 55.161 85.0207 55.8761 85.9103C56.5912 86.7999 57.5983 87.4074 58.7188 87.6249C59.3964 87.7396 60.0909 87.7038 60.7532 87.5201C61.4155 87.3364 62.0292 87.0094 62.551 86.5621C63.0729 86.1148 63.4899 85.5583 63.7727 84.9319C64.0555 84.3055 64.1971 83.6246 64.1875 82.9374V70.8124L72.3281 62.6249H73.5625V89.0156C73.5342 90.1566 73.911 91.2707 74.6261 92.1603C75.3412 93.0499 76.3483 93.6574 77.4688 93.8749C77.7287 93.8982 77.9901 93.8982 78.25 93.8749C79.4932 93.8749 80.6855 93.3811 81.5646 92.502C82.4436 91.6229 82.9375 90.4306 82.9375 89.1874V51.6874C82.9375 51.273 82.7729 50.8756 82.4799 50.5826C82.1868 50.2896 81.7894 50.1249 81.375 50.1249C80.9606 50.1249 80.5632 50.2896 80.2701 50.5826C79.9771 50.8756 79.8125 51.273 79.8125 51.6874V89.1874C79.8158 89.417 79.7686 89.6445 79.674 89.8538C79.5794 90.063 79.4399 90.2488 79.2654 90.398C79.0908 90.5472 78.8855 90.6561 78.6641 90.7169C78.4427 90.7777 78.2106 90.789 77.9844 90.7499C77.6033 90.6567 77.2662 90.4347 77.0299 90.1215C76.7936 89.8084 76.6726 89.4232 76.6875 89.0312V61.0624C76.6875 60.648 76.5229 60.2506 76.2299 59.9576C75.9368 59.6646 75.5394 59.4999 75.125 59.4999H71.6719C71.4662 59.4988 71.2624 59.5382 71.072 59.6159C70.8817 59.6937 70.7085 59.8083 70.5625 59.9531L61.5156 69.0624C61.3708 69.2084 61.2562 69.3816 61.1785 69.572C61.1007 69.7623 61.0613 69.9662 61.0625 70.1718V82.9374C61.0659 83.167 61.0186 83.3945 60.924 83.6038C60.8294 83.813 60.6899 83.9988 60.5154 84.148C60.3408 84.2972 60.1355 84.4061 59.9141 84.4669C59.6927 84.5277 59.4606 84.539 59.2344 84.4999C58.8533 84.4067 58.5162 84.1847 58.2799 83.8715C58.0436 83.5584 57.9227 83.1732 57.9375 82.7812V68.8749C57.9363 68.6693 57.9757 68.4655 58.0535 68.2751C58.1313 68.0847 58.2458 67.9116 58.3906 67.7656L66.8594 59.2656C67.0042 59.1196 67.1188 58.9464 67.1965 58.756C67.2743 58.5657 67.3137 58.3618 67.3125 58.1562V44.2031C67.3145 43.8774 67.2146 43.5593 67.0269 43.2931C66.8392 43.027 66.5731 42.8262 66.2656 42.7187L55.8594 39.0937C55.5832 38.9959 55.3401 38.8225 55.1577 38.5932C54.9754 38.3639 54.8612 38.0879 54.8281 37.7968L53.2656 23.7343C53.2412 23.5187 53.2619 23.3004 53.3265 23.0933C53.391 22.8861 53.498 22.6947 53.6406 22.5312C53.7871 22.3645 53.9673 22.2309 54.1694 22.1393C54.3714 22.0477 54.5907 22.0002 54.8125 21.9999C55.214 22.0381 55.5896 22.215 55.8748 22.5001C56.16 22.7853 56.3369 23.161 56.375 23.5624L57.6875 35.4999C57.7218 35.7929 57.8383 36.0701 58.0236 36.2996C58.2088 36.5291 58.4553 36.7015 58.7344 36.7968L67.8125 39.9218C68.0237 39.9997 68.2156 40.1223 68.375 40.2812C68.6647 40.5604 69.0508 40.7171 69.4531 40.7187H70.4375C70.8519 40.7187 71.2493 40.5541 71.5424 40.261C71.8354 39.968 72 39.5706 72 39.1562V38.4999C72.0011 38.195 71.9129 37.8964 71.7463 37.641C71.5797 37.3855 71.342 37.1844 71.0625 37.0624C69.7465 36.4881 68.6684 35.4781 68.0095 34.2024C67.3505 32.9266 67.151 31.4629 67.4443 30.0573C67.7377 28.6517 68.5061 27.39 69.6203 26.4843C70.7345 25.5786 72.1266 25.0842 73.5625 25.0842C74.9984 25.0842 76.3905 25.5786 77.5047 26.4843C78.6189 27.39 79.3873 28.6517 79.6807 30.0573C79.974 31.4629 79.7745 32.9266 79.1155 34.2024C78.4566 35.4781 77.3785 36.4881 76.0625 37.0624C75.783 37.1844 75.5453 37.3855 75.3787 37.641C75.2121 37.8964 75.1239 38.195 75.125 38.4999V39.1874C75.125 39.6018 75.2896 39.9993 75.5826 40.2923C75.8757 40.5853 76.2731 40.7499 76.6875 40.7499H84.5C85.3288 40.7499 86.1237 40.4207 86.7097 39.8346C87.2958 39.2486 87.625 38.4537 87.625 37.6249V17.4843C87.6093 17.0944 87.7281 16.7109 87.9613 16.3981C88.1945 16.0852 88.5281 15.8619 88.9062 15.7656C89.1355 15.7251 89.371 15.7363 89.5954 15.7985C89.8197 15.8607 90.0274 15.9722 90.2031 16.1249C90.3746 16.2716 90.5123 16.4537 90.6067 16.6587C90.7011 16.8637 90.75 17.0868 90.75 17.3124V37.6249C90.75 39.2825 90.0915 40.8723 88.9194 42.0444C87.7473 43.2165 86.1576 43.8749 84.5 43.8749H81.375C80.9606 43.8749 80.5632 44.0396 80.2701 44.3326C79.9771 44.6256 79.8125 45.023 79.8125 45.4374C79.8125 45.8518 79.9771 46.2493 80.2701 46.5423C80.5632 46.8353 80.9606 46.9999 81.375 46.9999H84.5C86.9864 46.9999 89.371 46.0122 91.1291 44.2541C92.8873 42.4959 93.875 40.1113 93.875 37.6249V17.3124C93.8754 16.6315 93.7274 15.9587 93.4414 15.3408C93.1554 14.7228 92.7381 14.1746 92.2187 13.7343V13.7343Z" fill="black"/>
<path d="M4.81249 18.875C6.05569 18.875 7.24798 18.3811 8.12705 17.5021C9.00613 16.623 9.49999 15.4307 9.49999 14.1875V9.5H18.875V12.9063C17.9363 12.5744 16.9164 12.55 15.9629 12.8367C15.0095 13.1233 14.172 13.7061 13.572 14.5006C12.972 15.295 12.6405 16.2599 12.6255 17.2554C12.6106 18.2509 12.913 19.2253 13.489 20.0374C14.0649 20.8495 14.8845 21.4571 15.8289 21.7722C16.7734 22.0873 17.7936 22.0935 18.7418 21.79C19.69 21.4864 20.5169 20.8888 21.1027 20.0838C21.6885 19.2787 22.0028 18.3081 22 17.3125V1.6875C22 1.2731 21.8354 0.875671 21.5423 0.582646C21.2493 0.28962 20.8519 0.125 20.4375 0.125H7.93749C7.52309 0.125 7.12566 0.28962 6.83263 0.582646C6.53961 0.875671 6.37499 1.2731 6.37499 1.6875V9.78125C5.73029 9.54732 5.04212 9.45771 4.35901 9.51874C3.67591 9.57976 3.01452 9.78994 2.4215 10.1344C1.82848 10.4789 1.31828 10.9494 0.926889 11.5126C0.5355 12.0757 0.272459 12.7179 0.156321 13.3939C0.040184 14.0698 0.0737802 14.763 0.25474 15.4245C0.435699 16.086 0.759614 16.6997 1.20363 17.2224C1.64765 17.7451 2.20095 18.164 2.82451 18.4496C3.44807 18.7351 4.12669 18.8803 4.81249 18.875V18.875ZM17.3125 18.875C17.0035 18.875 16.7014 18.7834 16.4444 18.6117C16.1875 18.44 15.9872 18.196 15.8689 17.9104C15.7507 17.6249 15.7197 17.3108 15.78 17.0077C15.8403 16.7046 15.9891 16.4262 16.2076 16.2076C16.4262 15.9891 16.7046 15.8403 17.0077 15.78C17.3108 15.7197 17.6249 15.7507 17.9104 15.8689C18.1959 15.9872 18.44 16.1875 18.6117 16.4444C18.7833 16.7014 18.875 17.0035 18.875 17.3125C18.875 17.7269 18.7104 18.1243 18.4173 18.4174C18.1243 18.7104 17.7269 18.875 17.3125 18.875ZM9.49999 3.25H18.875V6.375H9.49999V3.25ZM4.81249 12.625C5.12152 12.625 5.42362 12.7166 5.68057 12.8883C5.93752 13.06 6.13779 13.304 6.25605 13.5896C6.37431 13.8751 6.40526 14.1892 6.34497 14.4923C6.28468 14.7954 6.13586 15.0738 5.91734 15.2924C5.69882 15.5109 5.42041 15.6597 5.11732 15.72C4.81422 15.7803 4.50006 15.7493 4.21455 15.6311C3.92904 15.5128 3.68501 15.3125 3.51332 15.0556C3.34163 14.7986 3.24999 14.4965 3.24999 14.1875C3.24999 13.7731 3.41461 13.3757 3.70764 13.0826C4.00066 12.7896 4.39809 12.625 4.81249 12.625Z" fill="black"/>
<path d="M61.4687 17.1249C62.2165 17.6143 63.0907 17.8749 63.9844 17.8749C64.7687 17.8697 65.54 17.6735 66.2316 17.3033C66.9231 16.933 67.514 16.3999 67.9531 15.7499V15.7499L72.1406 9.15616L78.7344 13.3593C78.9858 13.5217 79.2787 13.6085 79.5781 13.6093C79.8395 13.6089 80.0967 13.5428 80.326 13.4173C80.5553 13.2917 80.7494 13.1106 80.8906 12.8905L84.25 7.60929C84.375 7.43214 84.4618 7.23092 84.5048 7.0184C84.5479 6.80589 84.5462 6.58675 84.5 6.37491C84.4034 5.9717 84.1578 5.62001 83.8125 5.39054L75.875 0.374913C75.5267 0.151719 75.1042 0.0757274 74.7 0.163597C74.2958 0.251467 73.9429 0.496029 73.7187 0.843663L70.4375 6.10929L67.6875 10.3124C67.3636 9.88668 66.9668 9.52167 66.5156 9.23429C65.4706 8.62667 64.2312 8.44626 63.0564 8.73073C61.8815 9.0152 60.8619 9.74254 60.2106 10.7609C59.5592 11.7792 59.3265 13.0098 59.5609 14.1957C59.7954 15.3816 60.4789 16.431 61.4687 17.1249V17.1249ZM75.5312 3.84366L80.7969 7.20304L79.0937 9.84366L73.8281 6.48429L75.5312 3.84366ZM62.625 12.3437C62.7676 12.1214 62.9642 11.9389 63.1964 11.8132C63.4287 11.6875 63.689 11.6227 63.9531 11.6249C64.2501 11.6274 64.5411 11.7083 64.7969 11.8593C65.1421 12.0858 65.3836 12.4397 65.4687 12.8437C65.5581 13.2458 65.4851 13.667 65.2656 14.0155C65.1558 14.1889 65.013 14.339 64.8452 14.4572C64.6775 14.5754 64.488 14.6594 64.2878 14.7044C64.0876 14.7494 63.8804 14.7545 63.6782 14.7194C63.476 14.6843 63.2827 14.6097 63.1094 14.4999C62.9359 14.3902 62.7859 14.2473 62.6677 14.0795C62.5495 13.9118 62.4655 13.7224 62.4205 13.5221C62.3755 13.3219 62.3704 13.1148 62.4055 12.9126C62.4406 12.7104 62.5152 12.517 62.625 12.3437V12.3437Z" fill="black"/>
<path d="M31.375 14.703C31.6025 15.745 32.1786 16.6783 33.0081 17.3487C33.8376 18.0192 34.8709 18.3866 35.9375 18.3905C36.2787 18.385 36.6186 18.3484 36.9531 18.2812C38.1645 18.0144 39.2209 17.2784 39.8906 16.2343V16.2343L44.9375 8.32804C45.1607 7.97978 45.2367 7.55723 45.1488 7.15302C45.0609 6.74882 44.8164 6.39595 44.4687 6.17179C44.1205 5.94859 43.6979 5.8726 43.2937 5.96047C42.8895 6.04834 42.5367 6.2929 42.3125 6.64054L39.625 10.828C39.3062 10.4032 38.9148 10.0382 38.4687 9.74991C37.4221 9.08178 36.1531 8.85625 34.9403 9.12283C33.7275 9.38941 32.67 10.1263 32 11.1718C31.6619 11.6873 31.4321 12.2661 31.3247 12.8732C31.2172 13.4802 31.2343 14.1028 31.375 14.703V14.703ZM34.625 12.8593C34.7356 12.6854 34.8796 12.5352 35.0485 12.4172C35.2175 12.2992 35.4081 12.2158 35.6094 12.1718C35.7234 12.1555 35.8391 12.1555 35.9531 12.1718C36.231 12.174 36.5032 12.2503 36.7418 12.3927C36.9803 12.5352 37.1766 12.7387 37.3103 12.9823C37.444 13.2258 37.5104 13.5007 37.5025 13.7784C37.4947 14.0562 37.4129 14.3268 37.2656 14.5624C37.155 14.7363 37.011 14.8865 36.8421 15.0045C36.6732 15.1225 36.4826 15.2059 36.2812 15.2499C35.9803 15.3158 35.6666 15.2913 35.3796 15.1795C35.0926 15.0677 34.845 14.8735 34.668 14.6213C34.491 14.3692 34.3925 14.0704 34.3849 13.7624C34.3772 13.4545 34.4608 13.1511 34.625 12.8905V12.8593Z" fill="black"/>
<path d="M53.25 12.625C53.6644 12.625 54.0618 12.4604 54.3549 12.1674C54.6479 11.8743 54.8125 11.4769 54.8125 11.0625V4.8125C54.8125 4.3981 54.6479 4.00067 54.3549 3.70765C54.0618 3.41462 53.6644 3.25 53.25 3.25C52.8356 3.25 52.4382 3.41462 52.1451 3.70765C51.8521 4.00067 51.6875 4.3981 51.6875 4.8125V11.0625C51.6875 11.4769 51.8521 11.8743 52.1451 12.1674C52.4382 12.4604 52.8356 12.625 53.25 12.625Z" fill="black"/>
<path d="M4.8125 31.375V36.0625C4.8125 36.4769 4.97712 36.8743 5.27015 37.1674C5.56317 37.4604 5.9606 37.625 6.375 37.625C6.7894 37.625 7.18683 37.4604 7.47985 37.1674C7.77288 36.8743 7.9375 36.4769 7.9375 36.0625V31.375C7.9375 30.9606 7.77288 30.5632 7.47985 30.2701C7.18683 29.9771 6.7894 29.8125 6.375 29.8125C5.9606 29.8125 5.56317 29.9771 5.27015 30.2701C4.97712 30.5632 4.8125 30.9606 4.8125 31.375Z" fill="black"/>
<path d="M37.625 26.6875C38.4879 26.6875 39.1875 25.9879 39.1875 25.125C39.1875 24.2621 38.4879 23.5625 37.625 23.5625C36.7621 23.5625 36.0625 24.2621 36.0625 25.125C36.0625 25.9879 36.7621 26.6875 37.625 26.6875Z" fill="black"/>
<path d="M29.8125 4.8125C30.6754 4.8125 31.375 4.11295 31.375 3.25C31.375 2.38706 30.6754 1.6875 29.8125 1.6875C28.9496 1.6875 28.25 2.38706 28.25 3.25C28.25 4.11295 28.9496 4.8125 29.8125 4.8125Z" fill="black"/>
</svg>
