<svg width="100" height="100" viewBox="0 0 100 100" fill="none" xmlns="http://www.w3.org/2000/svg">
<g clip-path="url(#clip0_19_122)">
<path d="M99.1809 70.4793V55.7188C99.1761 51.1918 95.5076 47.5233 90.9807 47.5185H84.4204V31.1179C84.4204 30.2122 83.6861 29.4779 82.7804 29.4779H72.94C72.0343 29.4779 71.3 30.2122 71.3 31.1179V47.5185H56.5394V27.8378C56.5394 26.9321 55.8051 26.1978 54.8994 26.1978H45.059C44.1533 26.1978 43.419 26.9321 43.419 27.8378V47.5185H28.6584V31.1179C28.6584 30.2122 27.9241 29.4779 27.0184 29.4779H17.178C16.2723 29.4779 15.538 30.2122 15.538 31.1179V47.5185H8.97775C4.45157 47.5233 0.783062 51.1918 0.777456 55.7188V70.4793C0.7214 73.9989 2.61451 77.2622 5.69763 78.9615V96.7202H2.41751C1.5118 96.7202 0.777456 97.4546 0.777456 98.3603C0.777456 99.266 1.5118 100 2.41751 100H97.5409C98.4466 100 99.1809 99.266 99.1809 98.3603C99.1809 97.4546 98.4466 96.7202 97.5409 96.7202H94.2608V78.9863C97.2966 77.2261 99.1697 73.9877 99.1809 70.4793V70.4793ZM74.5801 32.758H81.1403V47.5185H74.5801V32.758ZM46.6991 29.4779H53.2593V47.5185H46.6991V29.4779ZM18.8181 32.758H25.3783V47.5185H18.8181V32.758ZM4.05757 55.7188C4.05757 53.0008 6.2606 50.7986 8.97775 50.7986H90.9807C93.6986 50.7986 95.9008 53.0008 95.9008 55.7188V70.4793C95.8952 73.0844 94.3577 75.4419 91.9761 76.4982C89.4968 77.5425 86.6331 77.0051 84.7015 75.132C83.4699 73.8964 82.7796 72.2227 82.7804 70.4793V63.9191C82.7724 61.4422 81.3669 59.1831 79.1495 58.0804L79.0494 58.0259C78.7867 57.9018 78.516 57.7961 78.239 57.7096C78.0756 57.6552 77.9259 57.6015 77.7633 57.5623C77.5535 57.5142 77.3413 57.4766 77.1274 57.4501C76.9833 57.4293 76.8456 57.3861 76.699 57.3749C76.6205 57.3749 76.5453 57.3861 76.4684 57.3829C76.3907 57.3797 76.3058 57.3589 76.2201 57.3589C76.0383 57.3589 75.863 57.3965 75.6828 57.4109C75.5018 57.4261 75.3104 57.4341 75.1262 57.4654C74.8427 57.5182 74.5625 57.5903 74.2886 57.68C74.1404 57.7256 73.9899 57.7585 73.8457 57.8145C73.5398 57.9386 73.2443 58.0868 72.9616 58.2574C72.8583 58.3166 72.7486 58.3591 72.6469 58.4215C72.2641 58.6698 71.9078 58.9573 71.5842 59.2792C70.3486 60.506 69.6559 62.1773 69.6599 63.9191V67.1992C69.6599 70.8221 66.7233 73.7594 63.0997 73.7594C59.4768 73.7594 56.5394 70.8221 56.5394 67.1992V63.9191C56.5314 61.4422 55.126 59.1831 52.9086 58.0804L52.8085 58.0259C52.5458 57.9018 52.2751 57.7961 51.998 57.7096C51.8347 57.6552 51.6849 57.6015 51.5224 57.5623C51.3125 57.5142 51.1003 57.4766 50.8865 57.4501C50.7424 57.4293 50.6046 57.3861 50.4581 57.3749C50.3796 57.3749 50.3043 57.3861 50.2274 57.3829C50.1498 57.3797 50.0649 57.3589 49.9792 57.3589C49.7974 57.3589 49.622 57.3965 49.4419 57.4109C49.2609 57.4261 49.0695 57.4341 48.8853 57.4654C48.6026 57.5182 48.3231 57.5903 48.0492 57.68C47.8995 57.7256 47.7489 57.7585 47.6048 57.8145C47.3005 57.9386 47.0058 58.086 46.7239 58.2558C46.619 58.315 46.5077 58.3591 46.406 58.4199C46.0232 58.6674 45.6668 58.9541 45.3433 59.276C44.1069 60.5036 43.4142 62.1765 43.419 63.9191V73.7594C43.419 77.3823 40.4824 80.3197 36.8587 80.3197C33.2359 80.3197 30.2985 77.3823 30.2985 73.7594V63.9191C30.2905 61.4422 28.8851 59.1831 26.6676 58.0804L26.5675 58.0259C26.3049 57.9018 26.0342 57.7961 25.7571 57.7096C25.5937 57.6552 25.444 57.6015 25.2814 57.5623C25.0716 57.5142 24.8594 57.4766 24.6456 57.4501C24.5014 57.4293 24.3637 57.3861 24.2172 57.3749C24.0714 57.3637 23.9024 57.3589 23.7383 57.3589C20.1154 57.3589 17.178 60.2954 17.178 63.9191V70.4793C17.1804 72.2171 16.4949 73.8852 15.2705 75.1184C13.6449 76.6832 11.3473 77.335 9.14191 76.857C8.74952 76.7737 8.36513 76.6552 7.99435 76.5014C7.24479 76.1707 6.5617 75.707 5.97871 75.132C4.74707 73.8964 4.05677 72.2227 4.05757 70.4793V55.7188ZM8.97775 96.7202V80.1835C9.14191 80.2108 9.30608 80.218 9.47024 80.2372L9.59597 80.2508C11.031 80.3989 12.4813 80.2308 13.8443 79.7583C14.2607 79.6117 14.6675 79.4372 15.0607 79.237C15.1448 79.1961 15.2249 79.1513 15.3121 79.1056C15.6301 78.9327 15.9392 78.7429 16.2371 78.5363C16.3324 78.4714 16.4285 78.4105 16.5222 78.3417C19.0327 76.515 20.4998 73.5833 20.4582 70.4793V63.9191C20.4566 63.0486 20.8033 62.2142 21.4207 61.6015C21.5849 61.439 21.7651 61.2932 21.9589 61.1683C21.9933 61.1475 22.0309 61.1323 22.0654 61.113C22.2263 61.0146 22.3945 60.9305 22.5691 60.8616C22.6203 60.8424 22.6724 60.8304 22.7236 60.8143C22.8838 60.7599 23.048 60.7191 23.2153 60.691C23.2938 60.6782 23.3795 60.675 23.4564 60.6662C23.5941 60.6534 23.7327 60.6486 23.8712 60.6518C23.9745 60.6566 24.0778 60.667 24.1795 60.683C24.3028 60.6974 24.4254 60.7199 24.5455 60.7503C24.5863 60.7599 24.624 60.7751 24.6632 60.7863C26.0926 61.3076 27.0368 62.6746 27.0184 64.1962V73.7594C27.0184 79.1937 31.4244 83.5998 36.8587 83.5998C42.2938 83.5998 46.6991 79.1937 46.6991 73.7594V63.9191C46.6991 62.8052 47.2661 61.7681 48.203 61.1667C48.231 61.1491 48.2639 61.1371 48.2919 61.1195C48.4585 61.0178 48.633 60.9305 48.8148 60.86C48.8613 60.8424 48.9085 60.832 48.9542 60.8176C49.1151 60.7631 49.2793 60.7199 49.4467 60.6894C49.5251 60.6782 49.6108 60.6734 49.6829 60.6662C49.8206 60.6526 49.96 60.6478 50.0993 60.6518C50.2026 60.6566 50.3051 60.667 50.4076 60.683C50.531 60.6974 50.6527 60.7199 50.7736 60.7503C50.8144 60.7599 50.8521 60.7751 50.8913 60.7863C52.3256 61.3036 53.2761 62.6714 53.2593 64.1962V67.1992C53.2593 72.6335 57.6654 77.0395 63.0997 77.0395C68.5348 77.0395 72.94 72.6335 72.94 67.1992V63.9191C72.9384 63.0486 73.2852 62.2142 73.9026 61.6015C74.0668 61.439 74.2469 61.2932 74.4407 61.1683C74.4752 61.1475 74.5128 61.1323 74.5488 61.1106C74.709 61.0137 74.8772 60.9305 75.0509 60.8616C75.1022 60.8424 75.1559 60.8304 75.2151 60.8143C75.3729 60.7599 75.5346 60.7191 75.6988 60.691C75.7773 60.6782 75.863 60.675 75.9398 60.6662C76.0776 60.6534 76.2161 60.6486 76.3547 60.6518C76.458 60.6566 76.5613 60.667 76.663 60.683C76.7863 60.6974 76.9088 60.7199 77.0289 60.7503C77.0698 60.7599 77.1074 60.7751 77.1467 60.7863C78.5753 61.3084 79.5195 62.6754 79.5002 64.1962V70.4793C79.4978 73.0932 80.5341 75.6013 82.3824 77.4512C82.7075 77.7683 83.0542 78.063 83.4202 78.3337C83.5267 78.4105 83.6364 78.4794 83.7485 78.5531C84.024 78.7413 84.3027 78.9158 84.5926 79.0744C84.7079 79.1369 84.8224 79.1977 84.9385 79.2546C85.2693 79.4188 85.608 79.5645 85.954 79.691C86.0228 79.7159 86.0901 79.7471 86.1606 79.7703C87.0607 80.077 87.9992 80.254 88.949 80.2948H88.9602C89.4175 80.3133 89.8755 80.2996 90.3312 80.254L90.4954 80.2356C90.6595 80.218 90.8237 80.2108 90.9879 80.1835V96.7202H8.97775Z" fill="black"/>
<path d="M49.9792 22.9176C54.5062 22.912 58.1747 19.2435 58.1795 14.7173C58.1795 10.7805 52.4737 2.31995 51.3294 0.664672C51.0067 0.245849 50.5086 0 49.9792 0C49.4507 0 48.9518 0.245849 48.6299 0.664672C47.4847 2.31995 41.7789 10.7805 41.7789 14.7173C41.7845 19.2435 45.453 22.912 49.9792 22.9176ZM49.9792 4.56141C52.3392 8.24994 54.8994 12.9259 54.8994 14.7173C54.8994 17.4344 52.6972 19.6375 49.9792 19.6375C47.2621 19.6375 45.059 17.4344 45.059 14.7173C45.059 12.9259 47.6192 8.24994 49.9792 4.56141Z" fill="black"/>
<path d="M77.8601 26.1976C82.3871 26.192 86.0556 22.5235 86.0604 17.9973C86.0604 14.0605 80.3547 5.59997 79.2103 3.9447C78.8876 3.52588 78.3895 3.28003 77.8601 3.28003C77.3316 3.28003 76.8327 3.52588 76.5108 3.9447C75.3656 5.59997 69.6599 14.0605 69.6599 17.9973C69.6655 22.5235 73.334 26.192 77.8601 26.1976V26.1976ZM77.8601 7.84144C80.2201 11.53 82.7803 16.2059 82.7803 17.9973C82.7803 20.7145 80.5781 22.9175 77.8601 22.9175C75.143 22.9175 72.94 20.7145 72.94 17.9973C72.94 16.2059 75.5002 11.53 77.8601 7.84144Z" fill="black"/>
<path d="M22.0982 26.1976C26.6252 26.192 30.2937 22.5235 30.2985 17.9973C30.2985 14.0605 24.5927 5.59997 23.4483 3.9447C23.1256 3.52588 22.6275 3.28003 22.0982 3.28003C21.5696 3.28003 21.0707 3.52588 20.7488 3.9447C19.6037 5.59997 13.8979 14.0605 13.8979 17.9973C13.9035 22.5235 17.572 26.192 22.0982 26.1976ZM22.0982 7.84144C24.4582 11.53 27.0184 16.2059 27.0184 17.9973C27.0184 20.7145 24.8161 22.9175 22.0982 22.9175C19.381 22.9175 17.178 20.7145 17.178 17.9973C17.178 16.2059 19.7382 11.53 22.0982 7.84144Z" fill="black"/>
</g>
<defs>
<clipPath id="clip0_19_122">
<rect width="100" height="100" fill="white"/>
</clipPath>
</defs>
</svg>
