<svg width="135" height="135" viewBox="0 0 135 135" fill="none" xmlns="http://www.w3.org/2000/svg">
<path d="M133.599 32.4708C132.73 31.9558 131.655 31.9356 130.768 32.4194L99.7931 49.3324V39.1844C99.7842 31.2899 93.3868 24.8925 85.4923 24.8835H14.3008C6.40633 24.8925 0.00893803 31.2899 0 39.1844V95.6504C0.00893803 103.545 6.40633 109.942 14.3008 109.951H85.4923C93.3868 109.942 99.7842 103.545 99.7931 95.6504V85.6867L130.769 102.6C131.655 103.083 132.731 103.064 133.599 102.549C134.468 102.033 135 101.098 135 100.089V34.9299C135 33.9199 134.467 32.9859 133.599 32.4708V32.4708ZM94.0705 95.6515C94.0661 100.389 90.2272 104.226 85.49 104.232H14.3008C9.56369 104.226 5.72593 100.389 5.72034 95.6515V39.1844C5.72593 34.4484 9.56369 30.6095 14.3008 30.6039H85.4923C90.2283 30.6095 94.0672 34.4484 94.0728 39.1844L94.0705 95.6515ZM129.28 95.2694L99.7931 79.1698V55.8493L129.28 39.7508V95.2694Z" fill="#FF0000"/>
</svg>
