<svg width="997" height="671" viewBox="0 0 997 671" fill="none" xmlns="http://www.w3.org/2000/svg">
<g clip-path="url(#clip0_1_61)">
<path d="M738.129 565.12C735.215 565.12 732.787 562.69 732.787 559.774V8.84139C732.787 5.92537 735.215 3.49536 738.129 3.49536H972.229C975.143 3.49536 977.572 5.92537 977.572 8.84139V559.774C977.572 562.69 975.143 565.12 972.229 565.12H738.129Z" fill="white"/>
<path d="M972.229 3.98134C974.949 3.98134 977.086 6.11975 977.086 8.84137V559.774C977.086 562.495 974.949 564.634 972.229 564.634H738.129C735.41 564.634 733.273 562.495 733.273 559.774V8.84137C733.273 6.11975 735.41 3.98134 738.129 3.98134H972.229ZM972.229 3.00934H738.129C734.924 3.00934 732.301 5.63375 732.301 8.84137V559.774C732.301 562.981 734.924 565.606 738.129 565.606H972.229C975.435 565.606 978.057 562.981 978.057 559.774V8.84137C978.057 5.63375 975.435 3.00934 972.229 3.00934Z" fill="#696872"/>
<path d="M977.086 35.0855H733.273V8.84135C733.273 6.11973 735.41 3.98132 738.129 3.98132H972.229C974.949 3.98132 977.086 6.11973 977.086 8.84135V35.0855Z" fill="#E1E7F3"/>
<path d="M759.402 24.3934C762.085 24.3934 764.259 22.2175 764.259 19.5334C764.259 16.8493 762.085 14.6734 759.402 14.6734C756.72 14.6734 754.546 16.8493 754.546 19.5334C754.546 22.2175 756.72 24.3934 759.402 24.3934Z" fill="white"/>
<path d="M777.955 24.3934C780.638 24.3934 782.812 22.2175 782.812 19.5334C782.812 16.8493 780.638 14.6734 777.955 14.6734C775.273 14.6734 773.099 16.8493 773.099 19.5334C773.099 22.2175 775.273 24.3934 777.955 24.3934Z" fill="white"/>
<path d="M796.606 24.3934C799.288 24.3934 801.463 22.2175 801.463 19.5334C801.463 16.8493 799.288 14.6734 796.606 14.6734C793.923 14.6734 791.749 16.8493 791.749 19.5334C791.749 22.2175 793.923 24.3934 796.606 24.3934Z" fill="white"/>
<path d="M954.065 12.3406H932.5C931.626 12.3406 931.043 12.8266 931.043 13.6042C931.043 14.2846 931.723 14.7706 932.5 14.7706H954.065C954.939 14.7706 955.716 14.2846 955.716 13.6042C955.716 12.9238 955.036 12.3406 954.065 12.3406Z" fill="white"/>
<path d="M954.065 18.367H932.5C931.626 18.367 931.043 18.853 931.043 19.6306C931.043 20.311 931.723 20.797 932.5 20.797H954.065C954.939 20.797 955.716 20.311 955.716 19.6306C955.716 18.853 955.036 18.367 954.065 18.367Z" fill="white"/>
<path d="M954.065 24.3934H932.5C931.626 24.3934 931.043 24.8794 931.043 25.657C931.043 26.3374 931.723 26.8234 932.5 26.8234H954.065C954.939 26.8234 955.716 26.3374 955.716 25.657C955.716 24.8794 955.036 24.3934 954.065 24.3934Z" fill="white"/>
<path d="M801.463 309.677C807.203 309.677 811.856 305.02 811.856 299.276C811.856 293.532 807.203 288.876 801.463 288.876C795.722 288.876 791.069 293.532 791.069 299.276C791.069 305.02 795.722 309.677 801.463 309.677Z" fill="#E1E7F3"/>
<path d="M825.552 292.57C824.581 292.57 823.901 293.444 823.901 294.222C823.901 295.194 824.775 295.874 825.552 295.874H907.342C908.313 295.874 908.993 295 908.993 294.222C908.993 293.25 908.119 292.57 907.342 292.57H825.552Z" fill="#E1E7F3"/>
<path d="M825.552 303.067C824.581 303.067 823.901 303.942 823.901 304.72C823.901 305.692 824.775 306.372 825.552 306.372H860.716C861.687 306.372 862.367 305.497 862.367 304.72C862.367 303.748 861.493 303.067 860.716 303.067H825.552Z" fill="#E1E7F3"/>
<path d="M836.043 258.841C841.784 258.841 846.437 254.185 846.437 248.441C846.437 242.697 841.784 238.04 836.043 238.04C830.303 238.04 825.65 242.697 825.65 248.441C825.65 254.185 830.303 258.841 836.043 258.841Z" fill="#E1E7F3"/>
<path d="M860.036 241.831C859.065 241.831 858.385 242.706 858.385 243.483C858.385 244.455 859.259 245.136 860.036 245.136H941.825C942.797 245.136 943.477 244.261 943.477 243.483C943.477 242.511 942.602 241.831 941.825 241.831H860.036Z" fill="#E1E7F3"/>
<path d="M860.036 252.329C859.065 252.329 858.385 253.203 858.385 253.981C858.385 254.953 859.259 255.633 860.036 255.633H895.2C896.171 255.633 896.851 254.759 896.851 253.981C896.851 253.009 895.977 252.329 895.2 252.329H860.036Z" fill="#E1E7F3"/>
<path d="M809.136 91.3646C814.877 91.3646 819.53 86.7081 819.53 80.9641C819.53 75.2201 814.877 70.5637 809.136 70.5637C803.396 70.5637 798.743 75.2201 798.743 80.9641C798.743 86.7081 803.396 91.3646 809.136 91.3646Z" fill="#ADA3F1"/>
<path d="M923.466 183.511H790.195C787.475 183.511 785.338 181.372 785.338 178.651V65.1205C785.338 62.3988 787.475 60.2604 790.195 60.2604H923.466C926.186 60.2604 928.323 62.3988 928.323 65.1205V178.651C928.323 181.372 926.089 183.511 923.466 183.511Z" stroke="#696872" stroke-miterlimit="10"/>
<path d="M833.226 74.1601C832.255 74.1601 831.575 75.0349 831.575 75.8125C831.575 76.7845 832.449 77.4649 833.226 77.4649H914.918C915.89 77.4649 916.57 76.5901 916.57 75.8125C916.57 74.8405 915.695 74.1601 914.918 74.1601H833.226Z" fill="#CCCCCC"/>
<path d="M833.226 84.4633C832.255 84.4633 831.575 85.3381 831.575 86.1157C831.575 87.0877 832.449 87.7681 833.226 87.7681H868.39C869.361 87.7681 870.041 86.8933 870.041 86.1157C870.041 85.1437 869.167 84.4633 868.39 84.4633H833.226Z" fill="#CCCCCC"/>
<path d="M958.533 168.153H820.501C819.141 168.153 817.976 166.987 817.976 165.626V104.973C817.976 103.612 819.141 102.445 820.501 102.445H958.533C959.893 102.445 961.058 103.612 961.058 104.973V165.626C961.058 166.987 959.893 168.153 958.533 168.153Z" fill="#ADA3F1"/>
<path d="M848.574 123.538C847.603 123.538 846.923 124.413 846.923 125.19C846.923 126.162 847.797 126.843 848.574 126.843H930.363C931.335 126.843 932.014 125.968 932.014 125.19C932.014 124.218 931.14 123.538 930.363 123.538H848.574Z" fill="white"/>
<path d="M848.574 133.55C847.603 133.55 846.923 134.424 846.923 135.202C846.923 136.174 847.797 136.854 848.574 136.854H930.363C931.335 136.854 932.014 135.98 932.014 135.202C932.014 134.23 931.14 133.55 930.363 133.55H848.574Z" fill="white"/>
<path d="M848.574 143.658C847.603 143.658 846.923 144.533 846.923 145.311C846.923 146.283 847.797 146.963 848.574 146.963H883.737C884.709 146.963 885.389 146.088 885.389 145.311C885.389 144.339 884.515 143.658 883.737 143.658H848.574Z" fill="white"/>
<path d="M946.488 495.33C955.619 489.109 962.321 478.125 960.864 467.142C952.51 475.987 941.534 481.527 929.489 482.985C924.826 483.471 919.678 483.666 916.473 486.971C914.433 489.012 913.656 492.122 913.656 494.941C913.656 497.76 914.336 500.579 915.113 503.495L914.918 504.175C925.798 503.592 937.163 501.648 946.488 495.33Z" fill="#E1E7F3"/>
<path d="M960.476 467.044C957.173 475.598 951.15 482.888 943.282 487.943C941.631 489.109 939.785 489.984 937.94 490.47C936.094 490.956 934.054 490.761 932.306 490.275C930.655 489.789 928.809 489.109 926.963 489.109C925.118 489.109 923.272 489.984 921.912 491.247C920.261 492.9 919.387 495.135 918.61 497.274C917.735 499.607 916.764 502.134 914.918 503.981C914.724 504.175 915.113 504.467 915.21 504.272C918.512 501.259 918.901 496.302 921.427 492.705C922.592 491.053 924.438 489.692 926.478 489.692C928.323 489.692 930.169 490.373 931.82 490.859C933.666 491.345 935.511 491.539 937.357 491.15C939.397 490.664 941.242 489.984 942.894 489.012C946.779 486.679 950.082 483.86 953.093 480.458C956.396 476.57 959.116 472.293 960.961 467.433C961.156 466.947 960.67 466.947 960.476 467.044Z" fill="white"/>
<path d="M946.002 486.484C948.042 489.012 951.636 489.498 954.356 487.845C954.647 487.651 954.356 487.165 954.162 487.359C951.636 488.817 948.333 488.331 946.294 485.998C946.196 485.901 945.808 486.29 946.002 486.484Z" fill="white"/>
<path d="M933.277 490.567C933.471 487.359 934.928 484.346 937.26 482.208C937.454 482.013 937.066 481.722 936.968 481.916C934.637 484.249 933.083 487.262 932.792 490.567C932.792 490.956 933.277 490.956 933.277 490.567Z" fill="white"/>
<path d="M955.813 476.279C954.842 475.404 954.356 474.237 954.356 473.071C954.356 472.779 953.87 472.779 953.87 473.071C953.676 474.432 954.356 475.695 955.327 476.57C955.522 476.765 955.522 476.765 955.619 476.57C956.007 476.376 956.007 476.279 955.813 476.279Z" fill="white"/>
<path d="M928.809 447.41C928.809 447.604 928.809 447.702 928.809 448.09C928.517 450.715 927.935 453.242 927.352 455.964C927.352 456.158 927.158 456.255 927.158 456.644C925.312 462.865 922.495 468.502 918.512 473.557C917.055 475.598 915.21 477.445 913.364 479.194C910.839 481.527 907.827 484.054 906.37 487.068C906.176 487.359 906.079 487.748 905.885 488.04L914.044 504.272C914.044 504.272 914.044 504.272 914.238 504.467L914.53 505.147C914.724 504.953 914.724 504.953 914.821 504.855L915.015 504.661C915.015 504.661 915.015 504.661 915.21 504.467C915.21 504.467 915.21 504.467 915.404 504.272C915.89 503.786 916.57 503.3 917.055 502.814C921.427 498.926 925.603 494.649 928.712 489.984C928.906 489.789 928.906 489.692 929.003 489.498C930.46 487.359 931.82 485.124 932.889 482.694C933.569 481.333 934.054 480.069 934.54 478.708C935.706 475.209 936.386 471.516 936.58 467.822C936.774 460.435 934.54 453.145 929.586 447.993C929.003 447.507 929.003 447.507 928.809 447.41Z" fill="#E1E7F3"/>
<path d="M928.615 447.507C931.14 456.352 930.655 465.878 927.449 474.432C926.769 476.278 925.798 478.125 924.632 479.583C923.466 481.041 921.815 482.208 919.969 482.888C918.318 483.569 916.473 484.055 914.918 485.027C913.461 486.193 912.393 487.845 912.296 489.692C912.004 492.025 912.587 494.163 913.17 496.496C913.85 499.023 914.627 501.551 914.141 503.981C914.141 504.272 914.627 504.272 914.627 503.981C915.501 499.509 912.781 495.427 912.587 490.956C912.587 488.915 913.073 486.776 914.724 485.415C916.181 484.249 918.027 483.763 919.775 483.083C921.621 482.402 923.078 481.43 924.438 480.069C925.798 478.611 926.769 476.862 927.449 475.015C929.1 470.835 930.072 466.461 930.46 461.99C930.752 456.936 930.266 451.784 929.003 446.924C929.003 447.021 928.517 447.216 928.615 447.507Z" fill="white"/>
<path d="M928.615 471.71C931.82 472.39 934.929 470.738 936.094 467.725C936.288 467.433 935.803 467.239 935.608 467.53C934.443 470.349 931.432 471.904 928.615 471.224C928.517 471.03 928.323 471.613 928.615 471.71Z" fill="white"/>
<path d="M920.941 482.791C919.29 480.167 918.61 476.959 919.095 473.751C919.095 473.46 918.61 473.46 918.61 473.751C918.124 477.056 918.804 480.458 920.649 483.083C920.649 483.277 921.135 482.888 920.941 482.791Z" fill="white"/>
<path d="M930.266 457.519C929.1 457.519 927.935 456.838 927.255 455.866C927.06 455.575 926.769 455.866 926.963 456.158C927.643 457.324 929.003 458.005 930.266 458.005C930.46 458.005 930.557 458.005 930.557 457.81C930.46 457.713 930.46 457.519 930.266 457.519Z" fill="white"/>
<path d="M904.233 353.028H896.268C897.434 356.042 896.074 359.541 892.965 360.707C892.285 360.999 891.508 361.193 890.828 361.193H855.665C852.362 361.193 849.642 358.569 849.642 355.167C849.642 354.292 849.837 353.709 850.128 353.028H842.649C835.849 353.028 830.118 358.666 830.118 365.567V524.393C830.118 531.197 835.752 536.932 842.649 536.932H904.428C911.227 536.932 916.958 531.294 916.958 524.393V365.567C916.764 358.569 911.13 353.028 904.233 353.028Z" fill="white" stroke="#696872" stroke-miterlimit="10"/>
<path d="M904.816 377.426H886.263C885.777 377.426 885.389 377.134 885.389 376.551C885.389 375.968 885.68 375.676 886.263 375.676H904.816C905.302 375.676 905.69 375.968 905.69 376.551C905.496 377.037 905.108 377.426 904.816 377.426Z" fill="#ADA3F1"/>
<path d="M846.825 488.915H780.87C779.024 488.915 777.47 487.359 777.47 485.513V470.252C777.47 468.405 779.024 466.85 780.87 466.85H846.825C848.671 466.85 850.225 468.405 850.225 470.252V485.513C850.225 487.457 848.671 488.915 846.825 488.915Z" fill="white" stroke="#696872" stroke-miterlimit="10"/>
<path d="M904.816 380.925H886.263C885.777 380.925 885.389 380.633 885.389 380.05C885.389 379.467 885.68 379.175 886.263 379.175H904.816C905.302 379.175 905.69 379.467 905.69 380.05C905.496 380.536 905.108 380.925 904.816 380.925Z" fill="#ADA3F1"/>
<path d="M904.816 384.424H886.263C885.777 384.424 885.389 384.132 885.389 383.549C885.389 382.966 885.68 382.674 886.263 382.674H904.816C905.302 382.674 905.69 382.966 905.69 383.549C905.496 384.035 905.108 384.424 904.816 384.424Z" fill="#ADA3F1"/>
<path d="M835.655 474.723H791.943C791.457 474.723 790.972 474.432 790.972 473.751C790.972 473.265 791.263 472.779 791.943 472.779H835.655C836.14 472.779 836.626 473.071 836.626 473.751C836.723 474.237 836.238 474.723 835.655 474.723Z" fill="#ADA3F1"/>
<path d="M835.655 478.903H791.943C791.457 478.903 790.972 478.611 790.972 477.931C790.972 477.445 791.263 476.959 791.943 476.959H835.655C836.14 476.959 836.626 477.251 836.626 477.931C836.723 478.417 836.238 478.903 835.655 478.903Z" fill="#ADA3F1"/>
<path d="M817.976 483.083H791.943C791.457 483.083 790.972 482.791 790.972 482.111C790.972 481.625 791.263 481.139 791.943 481.139H817.976C818.462 481.139 818.947 481.43 818.947 482.111C819.044 482.791 818.462 483.083 817.976 483.083Z" fill="#ADA3F1"/>
<path d="M950.373 526.531H851.197C848.38 526.531 846.048 524.782 846.048 522.643V505.244C846.048 503.106 848.38 501.356 851.197 501.356H950.47C953.287 501.356 955.619 503.106 955.619 505.244V522.643C955.522 524.782 953.19 526.531 950.373 526.531Z" fill="white" stroke="#696872" stroke-miterlimit="10"/>
<path d="M915.793 319.105H782.521C779.801 319.105 777.664 316.967 777.664 314.245V284.696C777.664 281.975 779.801 279.836 782.521 279.836H915.793C918.512 279.836 920.649 281.975 920.649 284.696V314.245C920.649 316.967 918.415 319.105 915.793 319.105Z" stroke="#696872" stroke-miterlimit="10"/>
<path d="M861.882 509.618C861.202 509.618 860.91 510.104 860.91 510.59C860.91 511.271 861.396 511.562 861.882 511.562H939.688C940.368 511.562 940.66 511.076 940.66 510.59C940.66 509.91 940.174 509.618 939.688 509.618H861.882Z" fill="#ADA3F1"/>
<path d="M861.882 516.131C861.202 516.131 860.91 516.617 860.91 517.103C860.91 517.589 861.396 518.075 861.882 518.075H911.13C911.81 518.075 912.101 517.589 912.101 517.103C912.101 516.617 911.616 516.131 911.13 516.131H861.882Z" fill="#ADA3F1"/>
<path d="M783.104 454.02C780.578 454.02 778.635 451.978 778.635 449.548C778.635 447.118 780.675 445.077 783.104 445.077C785.532 445.077 787.572 447.118 787.572 449.548C787.572 451.978 785.629 454.02 783.104 454.02Z" fill="#F0F0F0"/>
<path d="M803.988 389.284C801.171 389.284 798.937 386.951 798.937 384.23C798.937 381.508 801.268 379.175 803.988 379.175C806.805 379.175 809.039 381.508 809.039 384.23C809.039 386.951 806.611 389.284 803.988 389.284Z" fill="#E1E7F3"/>
<path d="M933.957 425.345C931.626 425.345 929.586 423.304 929.586 420.971C929.586 418.639 931.626 416.597 933.957 416.597C936.288 416.597 938.328 418.639 938.328 420.971C938.328 423.499 936.288 425.345 933.957 425.345Z" fill="#E1E7F3"/>
<path d="M906.467 398.324H841.192L906.467 447.41V398.324Z" fill="#E1E7F3"/>
<path d="M906.467 397.74H840.026V447.993H906.467V397.74Z" stroke="#696872" stroke-miterlimit="10"/>
<path d="M943.185 537.029C937.843 537.029 933.374 532.655 933.374 527.212C933.374 521.866 937.746 517.394 943.185 517.394C948.625 517.394 952.996 521.768 952.996 527.212C952.996 532.655 948.528 537.029 943.185 537.029Z" fill="#ADA3F1"/>
<path d="M772.322 214.42H750.951C750.077 214.42 749.3 213.74 749.3 212.768C749.3 211.796 749.98 211.116 750.951 211.116H772.322C773.196 211.116 773.779 211.796 773.779 212.768C773.973 213.74 773.293 214.42 772.322 214.42Z" fill="white"/>
<path d="M772.322 220.447H750.951C750.077 220.447 749.3 219.766 749.3 218.794C749.3 217.822 749.98 217.142 750.951 217.142H772.322C773.196 217.142 773.973 217.822 773.973 218.794C773.973 219.766 773.293 220.447 772.322 220.447Z" fill="white"/>
<path d="M772.322 226.473H750.951C750.077 226.473 749.3 225.793 749.3 224.821C749.3 223.849 749.98 223.168 750.951 223.168H772.322C773.196 223.168 773.779 223.849 773.779 224.821C773.973 225.793 773.293 226.473 772.322 226.473Z" fill="white"/>
<path d="M759.014 194.98H737.449C736.575 194.98 735.992 195.466 735.992 196.244C735.992 196.924 736.672 197.41 737.449 197.41H759.014C759.888 197.41 760.665 196.924 760.665 196.244C760.762 195.661 760.082 194.98 759.014 194.98Z" fill="white"/>
<path d="M759.014 201.007H737.449C736.575 201.007 735.992 201.493 735.992 202.27C735.992 202.951 736.672 203.437 737.449 203.437H759.014C759.888 203.437 760.665 202.951 760.665 202.27C760.762 201.493 760.082 201.007 759.014 201.007Z" fill="white"/>
<path d="M759.014 207.033H737.449C736.575 207.033 735.992 207.519 735.992 208.297C735.992 208.977 736.672 209.463 737.449 209.463H759.014C759.888 209.463 760.665 208.977 760.665 208.297C760.762 207.519 760.082 207.033 759.014 207.033Z" fill="white"/>
<path d="M948.139 526.823H943.574V521.671C943.574 521.477 943.379 521.282 943.185 521.282C942.991 521.282 942.797 521.477 942.797 521.671V526.823H938.231C938.037 526.823 937.843 527.017 937.843 527.211C937.843 527.406 938.037 527.6 938.231 527.6H942.797V532.752C942.797 532.946 942.991 533.141 943.185 533.141C943.379 533.141 943.574 532.946 943.574 532.752V527.6H948.139C948.333 527.6 948.528 527.406 948.528 527.211C948.528 526.92 948.236 526.823 948.139 526.823Z" fill="white"/>
<path d="M950.179 268.367H816.81C814.09 268.367 811.953 266.228 811.953 263.507V233.958C811.953 231.236 814.09 229.098 816.81 229.098H950.082C952.802 229.098 954.939 231.236 954.939 233.958V263.507C955.036 266.131 952.899 268.367 950.179 268.367Z" stroke="#696872" stroke-miterlimit="10"/>
</g>
<g clip-path="url(#clip1_1_61)">
<path d="M765.76 157.282H744.538C743.67 157.282 742.899 156.606 742.899 155.64C742.899 154.675 743.574 153.999 744.538 153.999H765.76C766.629 153.999 767.207 154.675 767.207 155.64C767.4 156.606 766.725 157.282 765.76 157.282Z" fill="white"/>
<path d="M765.76 163.267H744.538C743.67 163.267 742.899 162.591 742.899 161.626C742.899 160.66 743.574 159.985 744.538 159.985H765.76C766.629 159.985 767.4 160.66 767.4 161.626C767.4 162.591 766.725 163.267 765.76 163.267Z" fill="white"/>
<path d="M765.76 169.252H744.538C743.67 169.252 742.899 168.576 742.899 167.611C742.899 166.646 743.574 165.97 744.538 165.97H765.76C766.629 165.97 767.207 166.646 767.207 167.611C767.4 168.576 766.725 169.252 765.76 169.252Z" fill="white"/>
<path d="M520.936 422.465C524.346 422.465 527.11 419.699 527.11 416.287C527.11 412.875 524.346 410.109 520.936 410.109C517.526 410.109 514.762 412.875 514.762 416.287C514.762 419.699 517.526 422.465 520.936 422.465Z" fill="white"/>
<path d="M358.202 647.49C355.308 647.49 352.897 645.077 352.897 642.181V134.499C352.897 131.603 355.308 129.19 358.202 129.19H771.645C774.539 129.19 776.95 131.603 776.95 134.499V642.084C776.95 644.98 774.539 647.394 771.645 647.394H358.202V647.49Z" fill="white"/>
<path d="M771.645 129.672C774.346 129.672 776.468 131.796 776.468 134.499V642.084C776.468 644.787 774.346 646.911 771.645 646.911H358.202C355.501 646.911 353.379 644.787 353.379 642.084V134.499C353.379 131.796 355.501 129.672 358.202 129.672H771.645ZM771.645 128.707H358.202C355.019 128.707 352.414 131.313 352.414 134.499V642.084C352.414 645.27 355.019 647.876 358.202 647.876H771.645C774.828 647.876 777.432 645.27 777.432 642.084V134.499C777.432 131.313 774.828 128.707 771.645 128.707Z" fill="#696872"/>
<path d="M552.094 316.566C560.245 316.566 566.853 309.953 566.853 301.796C566.853 293.638 560.245 287.026 552.094 287.026C543.943 287.026 537.335 293.638 537.335 301.796C537.335 309.953 543.943 316.566 552.094 316.566Z" fill="white"/>
<path d="M728.911 189.718H453.991C451.868 189.718 450.036 191.552 450.036 193.676V293.204H516.692C520.55 293.204 523.444 296.197 523.444 299.961V384.044H728.911C730.069 384.044 731.227 383.561 731.902 382.693C731.902 382.693 731.902 382.693 732.095 382.499C732.288 382.21 732.577 381.824 732.577 381.534C732.77 381.051 732.866 380.569 732.866 380.086V193.676C732.673 191.552 731.034 189.718 728.911 189.718Z" fill="#E1E7F3"/>
<path d="M732.191 205.453H450.614V206.611H732.191V205.453Z" fill="#CCCCCC"/>
<path d="M460.068 201.495C461.879 201.495 463.347 200.025 463.347 198.213C463.347 196.4 461.879 194.93 460.068 194.93C458.256 194.93 456.788 196.4 456.788 198.213C456.788 200.025 458.256 201.495 460.068 201.495Z" fill="#CCCCCC"/>
<path d="M469.907 201.495C471.718 201.495 473.187 200.025 473.187 198.213C473.187 196.4 471.718 194.93 469.907 194.93C468.096 194.93 466.627 196.4 466.627 198.213C466.627 200.025 468.096 201.495 469.907 201.495Z" fill="#CCCCCC"/>
<path d="M479.65 201.495C481.461 201.495 482.93 200.025 482.93 198.213C482.93 196.4 481.461 194.93 479.65 194.93C477.838 194.93 476.37 196.4 476.37 198.213C476.37 200.025 477.838 201.495 479.65 201.495Z" fill="#CCCCCC"/>
<path d="M661.966 230.166H520.55C517.271 230.166 514.57 232.772 514.57 236.151C514.57 239.53 517.174 242.136 520.55 242.136H661.869C665.149 242.136 667.85 239.53 667.85 236.151C667.85 232.772 665.245 230.166 661.966 230.166ZM661.966 241.171H520.55C517.753 241.171 515.534 239.047 515.534 236.151C515.534 233.255 517.656 231.131 520.55 231.131H661.869C664.667 231.131 666.885 233.255 666.885 236.151C667.078 238.854 664.763 241.171 661.966 241.171Z" fill="#CCCCCC"/>
<path d="M705.181 277.082H563.862C560.583 277.082 557.882 279.689 557.882 283.068C557.882 286.446 560.486 289.053 563.862 289.053H705.181C708.461 289.053 711.162 286.446 711.162 283.068C711.162 279.785 708.558 277.082 705.181 277.082Z" fill="white"/>
<path d="M705.181 298.899H563.862C560.583 298.899 557.882 301.506 557.882 304.885C557.882 308.263 560.486 310.87 563.862 310.87H705.181C708.461 310.87 711.162 308.263 711.162 304.885C711.162 301.506 708.558 298.899 705.181 298.899Z" fill="white"/>
<path d="M705.181 320.62H563.862C560.583 320.62 557.882 323.226 557.882 326.605C557.882 329.984 560.486 332.59 563.862 332.59H705.181C708.461 332.59 711.162 329.984 711.162 326.605C711.162 323.226 708.558 320.62 705.181 320.62Z" fill="white"/>
<path d="M541.097 267.332H476.756C473.958 267.332 471.643 269.649 471.643 272.449V292.818H472.512V272.449C472.512 270.132 474.537 268.105 476.852 268.105H541.193C543.509 268.105 545.534 270.132 545.534 272.449V336.935C545.534 339.251 543.509 341.279 541.193 341.279H523.251V342.147H541.193C543.991 342.147 546.306 339.831 546.306 337.031V272.642C546.306 269.649 543.991 267.332 541.097 267.332Z" fill="#CCCCCC"/>
<path d="M492.094 400.648H416.852C409.231 400.648 409.039 388.871 416.852 388.871H492.094C499.714 388.871 499.907 400.648 492.094 400.648Z" fill="#CCCCCC"/>
<path d="M492.094 422.369H416.852C409.231 422.369 409.039 410.591 416.852 410.591H492.094C499.714 410.784 499.907 422.369 492.094 422.369Z" fill="#CCCCCC"/>
<path d="M492.094 444.282H416.852C409.231 444.282 409.039 432.505 416.852 432.505H492.094C499.714 432.505 499.907 444.089 492.094 444.282Z" fill="#CCCCCC"/>
<path d="M490.743 374.777H418.299C414.151 374.777 410.871 371.494 410.871 367.343V326.702C410.871 322.551 414.151 319.269 418.299 319.269H490.743C494.891 319.269 498.171 322.551 498.171 326.702V367.343C498.267 371.494 494.891 374.777 490.743 374.777Z" fill="#ADA3F1"/>
<path d="M596.467 456.929C596.467 463.396 599.072 469.671 603.605 474.305C603.798 474.498 603.895 474.595 604.281 474.788C605.438 475.946 606.789 476.911 608.139 477.78C608.428 477.973 608.621 478.07 609.007 478.263C610.358 479.132 611.805 479.711 613.445 480.29C613.734 480.483 613.927 480.483 614.313 480.483C619.136 481.835 624.441 481.835 629.265 480.001C629.458 480.001 629.458 480.001 629.554 479.807C642.287 475.174 648.75 461.08 644.12 448.337C639.49 435.594 625.406 429.126 612.673 433.76C602.93 437.332 596.467 446.503 596.467 456.929Z" fill="white"/>
<path d="M622.319 473.146C628.925 473.146 634.281 467.787 634.281 461.176C634.281 454.565 628.925 449.206 622.319 449.206C615.713 449.206 610.358 454.565 610.358 461.176C610.358 467.787 615.713 473.146 622.319 473.146Z" fill="#ADA3F1"/>
<path d="M621.644 466.196V465.713C622.512 465.713 623.091 465.713 623.766 465.23C624.056 465.037 624.248 464.555 624.248 464.265C624.248 464.072 624.248 463.782 623.959 463.589C623.477 463.3 622.994 463.3 622.609 463.589L622.319 463.782L622.994 458.666H623.477L622.801 463.107C623.284 462.914 623.766 462.914 624.248 463.3C624.538 463.589 624.731 463.975 624.731 464.265C624.731 464.748 624.441 465.23 624.056 465.617C623.38 466.196 622.319 466.196 621.644 466.196Z" fill="#2F2E41"/>
<path d="M628.011 459.052H625.695V459.535H628.011V459.052Z" fill="#2F2E41"/>
<path d="M620.39 459.052H618.075V459.535H620.39V459.052Z" fill="#2F2E41"/>
<path d="M628.3 453.453C628.589 454.129 628.589 454.901 628.011 455.48C627.335 456.156 626.371 456.349 625.406 456.156C624.441 455.963 623.284 455.48 622.223 455.867C621.355 456.156 620.776 456.832 619.908 457.218C619.039 457.411 618.075 457.218 617.882 456.349C617.689 456.06 618.364 455.673 618.557 456.156C618.75 456.639 619.522 456.639 620.004 456.446C620.679 456.253 621.355 455.577 622.03 455.287C622.898 454.998 623.863 454.998 624.634 455.287C625.503 455.48 626.274 455.77 627.142 455.48C627.818 455.191 628.107 454.515 627.818 453.839C627.528 453.453 628.011 453.067 628.3 453.453Z" fill="#2F2E41"/>
<path d="M631.58 459.921C631.58 461.948 632.544 463.589 633.895 463.879C634.088 463.879 634.184 463.879 634.184 463.879C635.631 463.879 636.789 462.045 636.789 459.921C636.789 458.763 636.499 457.604 635.824 456.735C635.631 456.446 635.342 456.253 634.956 456.06C634.57 455.867 634.474 455.867 634.088 455.867C633.702 455.867 633.22 456.06 632.93 456.156C632.255 456.928 631.58 458.183 631.58 459.921Z" fill="#3F3D56"/>
<path d="M607.753 459.921C607.753 461.562 608.429 463.107 609.586 463.782C609.875 463.976 610.261 463.976 610.551 463.976H610.744C612.094 463.782 613.252 462.141 613.252 460.018C613.252 458.376 612.576 456.832 611.612 456.349C611.322 456.156 610.937 456.06 610.647 456.06C610.358 456.06 609.972 456.06 609.779 456.253C609.49 456.446 609.297 456.542 608.911 456.928C608.139 457.604 607.753 458.763 607.753 459.921Z" fill="#3F3D56"/>
<path d="M609.779 463.203C609.972 463.203 610.068 463.01 610.068 462.914C610.068 462.914 610.068 462.914 610.068 462.721C607.753 455.963 611.419 448.433 618.171 446.116C624.924 443.8 632.448 447.468 634.763 454.226C635.438 456.349 635.631 458.859 635.052 460.983C635.052 461.176 635.052 461.273 635.342 461.273C635.535 461.273 635.631 461.273 635.631 460.983C637.078 453.55 632.448 446.213 625.02 444.765C617.593 443.317 610.261 447.951 608.814 455.384C608.332 457.701 608.525 460.211 609.297 462.528C609.393 463.203 609.586 463.203 609.779 463.203Z" fill="#3F3D56"/>
<path d="M615.76 468.802C615.76 470.637 615.084 472.664 613.734 473.919C612.383 475.27 610.551 476.236 608.718 475.946C606.885 475.657 605.535 474.112 605.728 472.278C605.92 470.83 607.175 469.671 608.718 469.768C608.911 469.768 609.007 469.768 609.2 469.768C610.84 470.25 611.515 472.567 610.165 473.726C609.875 474.015 609.297 473.533 609.683 473.243C610.358 472.567 610.358 471.602 609.875 470.926C609.683 470.733 609.586 470.637 609.393 470.637C608.236 470.347 607.078 470.926 606.789 471.988C606.789 472.181 606.596 472.278 606.596 472.471C606.403 473.919 607.753 475.077 609.104 475.463C610.744 475.753 612.287 474.981 613.252 473.822C614.409 472.471 615.084 470.83 615.084 468.996C615.084 468.802 615.277 468.706 615.374 468.706C615.567 468.513 615.76 468.706 615.76 468.802Z" fill="#2F2E41"/>
<path d="M614.216 480.483C619.039 481.835 624.345 481.835 629.168 480.001C629.361 480.001 629.361 480.001 629.458 479.808C628.3 478.939 626.95 478.359 625.599 477.78C625.792 477.491 625.792 477.104 625.599 476.815C625.31 475.946 624.441 475.367 623.573 475.367H620.583C619.618 475.367 618.75 476.043 618.557 476.815C618.364 477.104 618.364 477.491 618.557 477.78C617.4 478.07 616.242 478.746 615.277 479.421C615.085 479.614 614.988 479.711 614.602 479.904C614.409 480.097 614.216 480.29 614.216 480.483Z" fill="#2F2E41"/>
<path d="M621.065 481.931C618.75 481.931 616.435 481.642 614.12 480.966C613.83 480.966 613.637 480.773 613.252 480.676C611.612 480.194 610.068 479.518 608.814 478.649C608.525 478.456 608.332 478.359 607.946 478.166C606.499 477.298 605.149 476.332 603.991 475.174C603.798 474.981 603.702 474.884 603.316 474.691C593.573 464.941 593.38 449.013 603.316 439.069C613.252 429.126 628.975 429.126 638.911 439.069C648.847 449.013 648.847 464.748 638.911 474.691C636.306 477.298 633.123 479.325 629.65 480.483C629.458 480.483 629.458 480.483 629.361 480.676C626.66 481.642 623.863 481.931 621.065 481.931ZM621.065 432.988C607.946 432.988 597.239 443.607 597.239 456.832C597.239 463.107 599.747 469.285 604.184 473.726C604.377 473.919 604.473 474.015 604.666 474.208C605.824 475.367 607.174 476.236 608.525 477.008C608.814 477.201 609.007 477.298 609.393 477.491C610.744 478.359 612.191 478.842 613.734 479.325C614.023 479.518 614.216 479.518 614.602 479.518C619.425 480.869 624.345 480.676 628.975 479.228L629.265 479.035C641.708 474.595 647.979 460.79 643.541 448.53C639.876 439.166 631.001 432.988 621.065 432.988Z" fill="#E1E7F3"/>
<path d="M691.773 457.218H654.442C652.802 457.218 651.451 455.867 651.451 454.226C651.451 452.584 652.802 451.233 654.442 451.233H691.773C693.413 451.233 694.763 452.584 694.763 454.226C694.763 455.867 693.413 457.218 691.773 457.218Z" fill="#ADA3F1"/>
<path d="M704.024 467.161H654.442C652.802 467.161 651.451 465.81 651.451 464.169C651.451 462.528 652.802 461.176 654.442 461.176H704.024C705.664 461.176 707.014 462.528 707.014 464.169C707.014 465.81 705.664 467.161 704.024 467.161Z" fill="#ADA3F1"/>
<path d="M691.773 505.486H598.782C597.142 505.486 595.792 504.134 595.792 502.493C595.792 500.852 597.142 499.501 598.782 499.501H691.773C693.413 499.501 694.763 500.852 694.763 502.493C694.763 504.134 693.413 505.486 691.773 505.486Z" fill="#E1E7F3"/>
<path d="M703.927 515.429H598.686C597.046 515.429 595.695 514.078 595.695 512.437C595.695 510.795 597.046 509.444 598.686 509.444H703.927C705.567 509.444 706.918 510.795 706.918 512.437C706.918 514.078 705.567 515.429 703.927 515.429Z" fill="#E1E7F3"/>
<path d="M691.773 538.308H598.782C597.142 538.308 595.792 536.957 595.792 535.316C595.792 533.674 597.142 532.323 598.782 532.323H691.773C693.413 532.323 694.763 533.674 694.763 535.316C694.763 536.957 693.413 538.308 691.773 538.308Z" fill="#E1E7F3"/>
<path d="M703.927 548.251H598.686C597.046 548.251 595.695 546.9 595.695 545.259C595.695 543.618 597.046 542.266 598.686 542.266H703.927C705.567 542.266 706.918 543.618 706.918 545.259C706.918 546.9 705.567 548.251 703.927 548.251Z" fill="#E1E7F3"/>
<path d="M691.773 571.323H598.782C597.142 571.323 595.792 569.972 595.792 568.331C595.792 566.69 597.142 565.338 598.782 565.338H691.773C693.413 565.338 694.763 566.69 694.763 568.331C694.763 569.972 693.413 571.323 691.773 571.323Z" fill="#E1E7F3"/>
<path d="M703.927 581.266H598.686C597.046 581.266 595.695 579.915 595.695 578.274C595.695 576.633 597.046 575.281 598.686 575.281H703.927C705.567 575.281 706.918 576.633 706.918 578.274C706.918 579.915 705.567 581.266 703.927 581.266C704.024 581.266 704.024 581.266 703.927 581.266Z" fill="#E1E7F3"/>
<path d="M776.468 160.564H353.283V134.789C353.283 131.989 355.501 129.672 358.202 129.672H771.548C774.249 129.672 776.468 131.989 776.468 134.789V160.564Z" fill="#E1E7F3"/>
<path d="M380.389 149.945C383.053 149.945 385.212 147.784 385.212 145.118C385.212 142.452 383.053 140.291 380.389 140.291C377.725 140.291 375.566 142.452 375.566 145.118C375.566 147.784 377.725 149.945 380.389 149.945Z" fill="white"/>
<path d="M398.717 149.945C401.381 149.945 403.54 147.784 403.54 145.118C403.54 142.452 401.381 140.291 398.717 140.291C396.053 140.291 393.894 142.452 393.894 145.118C393.894 147.784 396.053 149.945 398.717 149.945Z" fill="white"/>
<path d="M417.334 149.945C419.998 149.945 422.158 147.784 422.158 145.118C422.158 142.452 419.998 140.291 417.334 140.291C414.671 140.291 412.511 142.452 412.511 145.118C412.511 147.784 414.671 149.945 417.334 149.945Z" fill="white"/>
<path d="M752.545 137.974H731.13C730.262 137.974 729.683 138.457 729.683 139.229C729.683 139.905 730.358 140.388 731.13 140.388H752.545C753.413 140.388 754.185 139.905 754.185 139.229C754.281 138.65 753.606 137.974 752.545 137.974Z" fill="white"/>
<path d="M752.545 143.96H731.13C730.262 143.96 729.683 144.442 729.683 145.215C729.683 145.89 730.358 146.373 731.13 146.373H752.545C753.413 146.373 754.185 145.89 754.185 145.215C754.281 144.442 753.606 143.96 752.545 143.96Z" fill="white"/>
<path d="M752.545 149.945H731.13C730.262 149.945 729.683 150.428 729.683 151.2C729.683 151.876 730.358 152.358 731.13 152.358H752.545C753.413 152.358 754.185 151.876 754.185 151.2C754.281 150.428 753.606 149.945 752.545 149.945Z" fill="white"/>
<path d="M518.428 468.995H384.826C382.125 468.995 380.003 466.872 380.003 464.169V298.031C380.003 295.328 382.125 293.204 384.826 293.204H518.428C521.129 293.204 523.251 295.328 523.251 298.031V464.265C523.251 466.872 521.129 468.995 518.428 468.995Z" stroke="#696872" stroke-miterlimit="10"/>
<path d="M520.068 306.622C513.605 306.622 508.299 301.313 508.299 294.845C508.299 288.377 513.605 283.068 520.068 283.068C526.531 283.068 531.837 288.377 531.837 294.845C531.837 301.313 526.724 306.622 520.068 306.622Z" fill="#ADA3F1"/>
<path d="M525.566 294.362H520.55V288.763C520.55 288.474 520.357 288.281 520.068 288.281C519.779 288.281 519.586 288.474 519.586 288.763V294.362H514.57C514.28 294.362 514.087 294.555 514.087 294.845C514.087 295.135 514.28 295.328 514.57 295.328H519.586V300.927C519.586 301.216 519.779 301.409 520.068 301.409C520.357 301.409 520.55 301.216 520.55 300.927V295.328H525.566C525.856 295.328 526.049 295.135 526.049 294.845C526.049 294.555 525.856 294.362 525.566 294.362Z" fill="white"/>
<path d="M718.783 602.504H583.927C581.226 602.504 579.104 600.381 579.104 597.678V415.418C579.104 412.715 581.226 410.591 583.927 410.591H718.783C721.484 410.591 723.606 412.715 723.606 415.418V597.678C723.606 600.381 721.484 602.504 718.783 602.504Z" stroke="#696872" stroke-miterlimit="10"/>
<path d="M722.738 625.576C710.487 625.576 700.551 615.633 700.551 603.373C700.551 591.113 710.487 581.17 722.738 581.17C734.988 581.17 744.924 591.113 744.924 603.373C744.828 615.633 734.988 625.576 722.738 625.576Z" fill="#ADA3F1"/>
<path d="M732.866 602.504H723.606V591.885C723.606 591.403 723.316 591.017 722.738 591.017C722.159 591.017 721.87 591.306 721.87 591.885V602.504H712.609C712.127 602.504 711.741 602.794 711.741 603.373C711.741 603.952 712.03 604.242 712.609 604.242H721.87V614.861C721.87 615.344 722.159 615.73 722.738 615.73C723.316 615.73 723.606 615.44 723.606 614.861V604.242H732.866C733.349 604.242 733.734 603.952 733.734 603.373C733.734 602.794 733.252 602.504 732.866 602.504Z" fill="white"/>
</g>
<g clip-path="url(#clip2_1_61)">
<path d="M45.012 58.4622C47.7244 58.4622 49.9233 56.2629 49.9233 53.5501C49.9233 50.8372 47.7244 48.638 45.012 48.638C42.2996 48.638 40.1007 50.8372 40.1007 53.5501C40.1007 56.2629 42.2996 58.4622 45.012 58.4622Z" fill="white"/>
<path d="M63.7731 58.4622C66.4855 58.4622 68.6843 56.2629 68.6843 53.5501C68.6843 50.8372 66.4855 48.638 63.7731 48.638C61.0606 48.638 58.8618 50.8372 58.8618 53.5501C58.8618 56.2629 61.0606 58.4622 63.7731 58.4622Z" fill="white"/>
<path d="M82.6323 58.4622C85.3448 58.4622 87.5436 56.2629 87.5436 53.5501C87.5436 50.8372 85.3448 48.638 82.6323 48.638C79.9199 48.638 77.7211 50.8372 77.7211 53.5501C77.7211 56.2629 79.9199 58.4622 82.6323 58.4622Z" fill="white"/>
<path d="M25.858 665.202C22.9113 665.202 20.4556 662.746 20.4556 659.798V41.9575C20.4556 39.0103 22.9113 36.5543 25.858 36.5543H655.876C658.823 36.5543 661.279 39.0103 661.279 41.9575V659.798C661.279 662.746 658.823 665.202 655.876 665.202H25.858Z" fill="white"/>
<path d="M655.876 37.0455C658.626 37.0455 660.787 39.2068 660.787 41.9575V659.799C660.787 662.549 658.626 664.711 655.876 664.711H25.858C23.1077 664.711 20.9468 662.549 20.9468 659.799V41.9575C20.9468 39.2068 23.1077 37.0455 25.858 37.0455H655.876ZM655.876 36.063H25.858C22.6166 36.063 19.9645 38.7156 19.9645 41.9575V659.799C19.9645 663.041 22.6166 665.693 25.858 665.693H655.876C659.117 665.693 661.77 663.041 661.77 659.799V41.9575C661.77 38.7156 659.117 36.063 655.876 36.063Z" fill="#696872"/>
<path d="M281.834 540.337H76.8371C74.0867 540.337 71.9258 538.176 71.9258 535.425V368.021C71.9258 365.27 74.0867 363.109 76.8371 363.109H281.834C284.584 363.109 286.745 365.27 286.745 368.021V535.425C286.745 538.077 284.584 540.337 281.834 540.337Z" stroke="#696872" stroke-miterlimit="10"/>
<path d="M660.787 68.4828H20.9468V42.3505C20.9468 39.5015 23.2059 37.1437 25.858 37.1437H655.778C658.528 37.1437 660.689 39.5015 660.689 42.3505L660.787 68.4828Z" fill="#E1E7F3"/>
<path d="M48.4499 57.6762C51.1623 57.6762 53.3611 55.477 53.3611 52.7641C53.3611 50.0513 51.1623 47.8521 48.4499 47.8521C45.7375 47.8521 43.5386 50.0513 43.5386 52.7641C43.5386 55.477 45.7375 57.6762 48.4499 57.6762Z" fill="white"/>
<path d="M67.2109 57.6762C69.9233 57.6762 72.1222 55.477 72.1222 52.7641C72.1222 50.0513 69.9233 47.8521 67.2109 47.8521C64.4985 47.8521 62.2997 50.0513 62.2997 52.7641C62.2997 55.477 64.4985 57.6762 67.2109 57.6762Z" fill="white"/>
<path d="M86.0702 57.6762C88.7827 57.6762 90.9815 55.477 90.9815 52.7641C90.9815 50.0513 88.7827 47.8521 86.0702 47.8521C83.3578 47.8521 81.159 50.0513 81.159 52.7641C81.159 55.477 83.3578 57.6762 86.0702 57.6762Z" fill="white"/>
<path d="M636.526 45.4943H614.72C613.836 45.4943 613.246 45.9855 613.246 46.7714C613.246 47.4591 613.934 47.9503 614.72 47.9503H636.526C637.41 47.9503 638.195 47.4591 638.195 46.7714C638.195 46.0837 637.606 45.4943 636.526 45.4943Z" fill="white"/>
<path d="M636.526 51.5852H614.72C613.836 51.5852 613.246 52.0764 613.246 52.8623C613.246 53.55 613.934 54.0412 614.72 54.0412H636.526C637.41 54.0412 638.195 53.55 638.195 52.8623C638.195 52.0764 637.606 51.5852 636.526 51.5852Z" fill="white"/>
<path d="M636.526 57.6762H614.72C613.836 57.6762 613.246 58.1674 613.246 58.9533C613.246 59.641 613.934 60.1322 614.72 60.1322H636.526C637.41 60.1322 638.195 59.641 638.195 58.9533C638.195 58.1674 637.606 57.6762 636.526 57.6762Z" fill="white"/>
<path d="M394.498 302.887H77.8193C75.069 302.887 72.908 300.726 72.908 297.975V170.85H394.498V302.887Z" fill="#E1E7F3"/>
<path d="M350.1 229.795C350.1 282.649 318.668 301.217 279.869 301.217C278.985 301.217 278.003 301.217 277.217 301.217C275.351 301.217 273.681 301.02 271.815 301.02C236.846 298.466 209.54 279.113 209.54 229.992C209.54 179.005 274.467 114.853 279.378 110.137C279.574 109.941 279.673 109.842 279.673 109.842C279.673 109.842 350.1 177.04 350.1 229.795Z" fill="#F8FE91"/>
<path d="M277.315 293.161L302.952 257.205L277.119 296.993V301.02C275.252 301.02 273.583 300.824 271.716 300.824L274.368 247.872V247.577L274.663 242.469L249.026 202.681L274.86 238.834V239.816L276.922 199.832L254.822 158.669L277.217 192.955L279.378 110.039V109.646V109.941L279.083 175.271L300.988 149.237L278.887 180.773L278.396 216.533L299.023 182.148L278.396 221.838L278.101 241.781L307.962 194.035L277.905 248.854L277.315 293.161Z" fill="#696872"/>
<path d="M279.673 632.88H80.5696C77.3282 632.88 74.6761 630.228 74.6761 626.986V560.869C74.6761 557.627 77.3282 554.975 80.5696 554.975H279.673C282.914 554.975 285.566 557.627 285.566 560.869V626.986C285.664 630.13 282.914 632.88 279.673 632.88Z" fill="#E1E7F3"/>
<path d="M481.919 302.887H77.8193C75.069 302.887 72.908 300.726 72.908 297.975V143.834C72.908 141.083 75.069 138.922 77.8193 138.922H482.017C484.767 138.922 486.928 141.083 486.928 143.834V297.975C486.83 300.627 484.669 302.887 481.919 302.887Z" stroke="#696872" stroke-miterlimit="10"/>
<path d="M511.485 549.08C514.957 549.08 517.771 546.265 517.771 542.793C517.771 539.32 514.957 536.505 511.485 536.505C508.013 536.505 505.198 539.32 505.198 542.793C505.198 546.265 508.013 549.08 511.485 549.08Z" fill="white"/>
<path d="M543.211 441.309C551.511 441.309 558.24 434.58 558.24 426.278C558.24 417.977 551.511 411.247 543.211 411.247C534.911 411.247 528.183 417.977 528.183 426.278C528.183 434.58 534.911 441.309 543.211 441.309Z" fill="white"/>
<path d="M311.596 567.55H112.493C109.251 567.55 106.599 564.897 106.599 561.655V400.146C106.599 396.904 109.251 394.252 112.493 394.252H311.596C314.837 394.252 317.489 396.904 317.489 400.146V561.655C317.391 564.995 314.837 567.55 311.596 567.55Z" fill="#ADA3F1"/>
<path d="M234.685 527.86H133.12C132.924 527.86 132.826 527.86 132.826 527.86L180.956 444.65C181.84 442.979 184.001 442.488 185.474 443.274C185.966 443.569 186.457 443.962 186.85 444.65L219.068 500.549L220.541 503.202L234.685 527.86Z" fill="white"/>
<path d="M291.361 527.86H203.45L220.541 503.005L221.72 501.139L244.017 468.915C245.49 467.049 248.437 466.754 250.303 468.228C250.5 468.424 250.5 468.424 250.598 468.522C250.696 468.621 250.794 468.817 250.893 468.817L291.361 527.86Z" fill="white"/>
<path d="M285.271 442.488C293.571 442.488 300.3 435.759 300.3 427.457C300.3 419.156 293.571 412.426 285.271 412.426C276.971 412.426 270.243 419.156 270.243 427.457C270.243 435.759 276.971 442.488 285.271 442.488Z" fill="white"/>
<path d="M484.276 176.647C503.643 176.647 519.343 160.944 519.343 141.574C519.343 122.205 503.643 106.502 484.276 106.502C464.91 106.502 449.21 122.205 449.21 141.574C449.21 160.944 464.91 176.647 484.276 176.647Z" fill="#ADA3F1"/>
<path d="M497.438 140.396H485.455V126.74C485.455 126.052 484.964 125.758 484.473 125.758C483.982 125.758 483.49 126.249 483.49 126.74V140.396H471.507C470.819 140.396 470.525 140.887 470.525 141.378C470.525 141.869 471.016 142.36 471.507 142.36H483.49V156.016C483.49 156.704 483.982 156.998 484.473 156.998C484.964 156.998 485.455 156.507 485.455 156.016V142.557H497.438C498.126 142.557 498.421 142.066 498.421 141.574C498.421 141.083 497.93 140.396 497.438 140.396Z" fill="white"/>
</g>
<defs>
<clipPath id="clip0_1_61">
<rect width="250" height="569" fill="white" transform="translate(730)"/>
</clipPath>
<clipPath id="clip1_1_61">
<rect width="435" height="525" fill="white" transform="translate(347 125)"/>
</clipPath>
<clipPath id="clip2_1_61">
<rect width="650" height="637" fill="white" transform="translate(18 34)"/>
</clipPath>
</defs>
</svg>
